<?xml version="1.0" encoding="utf-8"?>
<!-- Generator: Adobe Illustrator 27.4.0, SVG Export Plug-In . SVG Version: 6.00 Build 0)  -->
<svg version="1.1" id="_레이어_2" xmlns="http://www.w3.org/2000/svg" xmlns:xlink="http://www.w3.org/1999/xlink" x="0px"
	 y="0px" viewBox="0 0 176.4 100" style="enable-background:new 0 0 176.4 100;" xml:space="preserve">
<style type="text/css">
	.st0{fill:none;}
	.st1{fill:#003964;}
	.st2{fill:#ED193A;}
	.st3{fill:#58595B;}
</style>
<g id="_레이어_1-2">
	<g>
		<rect x="-61.2" y="0.5" class="st0" width="308" height="100"/>
		<g id="_그룹_4555">
			<path id="_패스_3611" class="st1" d="M51.8,49.7c-2.9-2-7-1.3-9,1.6c-0.1,0.1-0.1,0.2-0.2,0.3c-1.9,3-5.9,3.9-9,2
				c-1.4-0.9-2.4-2.2-2.8-3.8l0,0c0,0,0,0,0-0.1l0-0.1c-0.2-0.8-0.4-1.7-0.3-2.6c0-5.8,6-12.3,14.6-12.3s13.8,6.7,15.2,10.4
				c0-0.1-0.1-0.1-0.1-0.2c-3.3-9.7-13.9-14.9-23.6-11.5C29,36.1,24,43.2,24,51.1c0,9.2,6.6,17,15.8,17c7.3,0,12.2-4.1,14.5-9.7
				C55.5,55.3,54.5,51.7,51.8,49.7"/>
			<path id="_패스_3612" class="st2" d="M60.2,45.6C59.2,42,54.1,34.8,45,34.8c-8.6,0-14.6,6.5-14.6,12.3c0,0.9,0.1,1.7,0.3,2.6
				c-0.1-0.4-0.2-0.9-0.2-1.3c0-6.1,6.1-10.3,12.3-10.3c8.4,0,15.3,6.8,15.3,15.3c0,6.4-3.6,12.2-9.3,15.1l0,0
				C58.1,65.2,63.1,55.1,60.2,45.6"/>
			<g id="_그룹_4554">
				<path id="_패스_3613" class="st3" d="M71.3,44.5v-1.9h10.2v1.9h-4.3l4.5,4.6l-1.4,1.3l-3.8-4l-3.7,4.1l-1.5-1.3l4.5-4.7
					L71.3,44.5L71.3,44.5z M73,51.4h14v4.9H75.2v1.5h12v1.8H73v-5h11.8v-1.5H73V51.4L73,51.4L73,51.4z M84.8,42.1H87v8.5h-2.2V42.1z
					"/>
				<path id="_패스_3614" class="st3" d="M100,51.1h-9.3v-8.6h2.2v2.3h5v-2.3h2.1L100,51.1L100,51.1L100,51.1z M97.9,46.7h-5v2.6
					h5V46.7z M104.2,56.1c0,0.6-0.1,1.2-0.4,1.7c-0.2,0.5-0.6,1-1,1.4c-0.4,0.4-0.9,0.7-1.5,0.9c-0.6,0.2-1.2,0.3-1.8,0.3
					c-0.6,0-1.2-0.1-1.8-0.3c-0.6-0.2-1.1-0.5-1.5-0.9c-0.4-0.4-0.7-0.9-1-1.4c-0.2-0.5-0.4-1.1-0.4-1.7c0-0.6,0.1-1.2,0.4-1.7
					c0.2-0.5,0.6-1,1-1.4c0.4-0.4,0.9-0.7,1.5-0.9c1.7-0.7,3.7-0.3,5.1,0.9c0.4,0.4,0.8,0.9,1,1.4C104.1,54.9,104.2,55.5,104.2,56.1
					L104.2,56.1L104.2,56.1z M102,56.1c0-0.7-0.3-1.3-0.7-1.7c-0.9-1-2.5-1-3.4,0c0,0,0,0,0,0c-0.5,0.5-0.7,1.1-0.7,1.7
					c0,0.7,0.2,1.3,0.7,1.7c0.4,0.5,1.1,0.7,1.7,0.7s1.3-0.2,1.7-0.7C101.7,57.4,102,56.7,102,56.1L102,56.1z M103.5,42.1h2.2v9.5
					h-2.2v-2.1h-2.6v-1.8h2.6v-1.9h-2.6v-1.8h2.6V42.1z"/>
				<path id="_패스_3615" class="st3" d="M120,50.8v2h-11.6v-2h3.6v-4h2.2v4H120L120,50.8L120,50.8z M116.8,49.1v-4.8h-7.6v-1.9
					h9.8v6.7L116.8,49.1L116.8,49.1z M109.7,59.6v-5.3h2.2v3.4h12v2L109.7,59.6L109.7,59.6z M123.6,53.8h-2.2V42.1h2.2v4.8h2.3v2
					h-2.3V53.8z"/>
				<path id="_패스_3616" class="st3" d="M137.6,57.5h-9.5v-8.2h7.1v-4.2h-7.1v-2h9.3v8h-7.1v4.3h7.3L137.6,57.5L137.6,57.5
					L137.6,57.5z M140.8,42.1h2.2v17.8h-2.2V42.1z"/>
				<path id="_패스_3617" class="st3" d="M146,45.5v-1.9h4.2v-1.7h2.4v1.7h4v1.9h-4.3l4.5,4.5l-1.5,1.4l-3.9-4l-3.8,4.3l-1.5-1.4
					l4.5-4.8H146z M160.2,56.1c0,0.6-0.1,1.2-0.4,1.7c-0.2,0.5-0.6,1-1,1.4c-0.4,0.4-0.9,0.7-1.5,0.9c-0.6,0.2-1.2,0.3-1.8,0.3
					c-0.6,0-1.2-0.1-1.8-0.3c-0.6-0.2-1.1-0.5-1.5-1c-0.4-0.4-0.7-0.9-1-1.4c-0.2-0.5-0.4-1.1-0.4-1.7c0-0.6,0.1-1.2,0.4-1.7
					c0.2-0.5,0.6-1,1-1.4c0.4-0.4,0.9-0.7,1.5-0.9c1.7-0.7,3.7-0.3,5.1,0.9c0.4,0.4,0.8,0.9,1,1.4C160.1,54.9,160.2,55.5,160.2,56.1
					L160.2,56.1L160.2,56.1z M158,56.1c0-0.7-0.3-1.3-0.7-1.7c-0.9-1-2.5-1-3.4,0c0,0,0,0,0,0c-0.5,0.5-0.7,1.1-0.7,1.7
					c0,0.7,0.2,1.3,0.7,1.7c0.4,0.5,1.1,0.7,1.7,0.7s1.3-0.2,1.7-0.7C157.8,57.4,158,56.8,158,56.1L158,56.1L158,56.1z M159.5,52.1
					v-4h-3.1v-1.9h3.1v-4h2.2v10L159.5,52.1L159.5,52.1z"/>
			</g>
		</g>
	</g>
</g>
</svg>
