<?xml version="1.0" encoding="utf-8"?>
<!-- Generator: Adobe Illustrator 27.4.0, SVG Export Plug-In . SVG Version: 6.00 Build 0)  -->
<svg version="1.1" id="_레이어_2" xmlns="http://www.w3.org/2000/svg" xmlns:xlink="http://www.w3.org/1999/xlink" x="0px"
	 y="0px" viewBox="0 0 176.4 100" style="enable-background:new 0 0 176.4 100;" xml:space="preserve">
<style type="text/css">
	.st0{fill:none;}
	.st1{fill-rule:evenodd;clip-rule:evenodd;fill:#221E1F;}
	.st2{fill-rule:evenodd;clip-rule:evenodd;fill:#939598;}
	.st3{fill-rule:evenodd;clip-rule:evenodd;fill:#7DCEF1;}
	.st4{fill-rule:evenodd;clip-rule:evenodd;fill:#41A8D1;}
	.st5{fill-rule:evenodd;clip-rule:evenodd;fill:#18729E;}
	.st6{fill-rule:evenodd;clip-rule:evenodd;fill:#001538;}
	.st7{fill-rule:evenodd;clip-rule:evenodd;fill:#004E79;}
</style>
<g id="_레이어_1-2">
	<g>
		<rect x="-65.8" class="st0" width="308" height="100"/>
		<g id="Layer_1">
			<g id="_그룹_4550">
				<path id="_패스_3552" class="st1" d="M153.8,49.7h1.5v2.9h5.6v1.5h-7.6v-4c-0.4,0.4-0.9,0.8-1.3,1.1l-1-1.5
					c0.9-0.5,1.5-1.3,1.9-2.2h-2.9V46h2.1c-0.9-0.5-1.4-1.4-1.5-2.4c0-1.6,1.6-2.9,3.6-2.9s3.6,1.3,3.6,2.9c0,1-0.6,1.9-1.5,2.4h2.6
					v-5.1h2v10.5h-2v-1.3h-2.2v-1.5h2.2v-1h-3.8C154.8,48.3,154.4,49,153.8,49.7L153.8,49.7L153.8,49.7z M57.8,45.6
					c-1.1,1.6-2.9,2.6-4.9,3.3l-0.8-1.3c2.7-1.2,4.6-2.5,4.8-4.8h-2.5c-0.8,0-1.5-0.2-2.2-0.5l0.7-1.3c0.5,0.2,1,0.4,1.5,0.3H59v0.9
					c0,0.6-0.1,1.2-0.3,1.8h2.4v-3h2v9.4h-2v-4.8h-3.2C57.9,45.5,57.9,45.5,57.8,45.6L57.8,45.6L57.8,45.6z M57.7,48.8h-2v5.3h7.6
					v-1.5h-5.6L57.7,48.8L57.7,48.8L57.7,48.8z M80.1,43.2c0-0.8-0.2-1.7-0.6-2.4l-1.8,0.7c0.3,0.5,0.5,1.2,0.4,1.8v6h3.2v2.5h-5.1
					v1.5h12.3v-1.5h-5.2v-2.5h3.3v-8.4h-2v3h-4.5L80.1,43.2L80.1,43.2L80.1,43.2z M84.6,47.7h-4.5v-2.2h4.5V47.7z M141.9,42.8h-2.2
					c-0.8,0-1.5-0.2-2.2-0.5l0.7-1.3c0.5,0.2,1,0.4,1.5,0.3h4.5c-0.1,1.4-0.2,2.8-0.5,4.2c-0.7,2.9-2.6,5.4-5.3,6.8l-1-1.4
					C139.9,49.3,141.8,47.2,141.9,42.8L141.9,42.8L141.9,42.8z M147.6,40.9h-2v13.2h2v-8.6h1.6V44h-1.6V40.9L147.6,40.9L147.6,40.9z
					 M132.8,49.8c0.9,0.1,1.5,0.8,1.4,1.7c-0.1,0.8-0.8,1.5-1.7,1.4c-0.8-0.1-1.4-0.7-1.4-1.5C131.1,50.4,131.9,49.8,132.8,49.8
					L132.8,49.8z M136.5,40.9h-2v1.9h-1.9v1.5h1.9v1.2h-1.9v0.9h-0.8v-3.5h0.6v-1.5h-4.9c-0.5,0-1-0.1-1.5-0.3l-0.7,1.3
					c0.7,0.4,1.4,0.5,2.2,0.5h2.4v3.5h-1.4v-2.9h-1.9v2.9h-1.1v1.5h7.4v-1h1.6v1.4h2L136.5,40.9L136.5,40.9L136.5,40.9z M132.8,48.3
					c-2.1,0-3.8,1.3-3.8,3s1.7,3,3.8,3s3.8-1.3,3.8-3S134.9,48.3,132.8,48.3z M123.1,40.9h-2v13.2h2v-8.6h1.8V44h-1.8V40.9
					L123.1,40.9L123.1,40.9z M119.4,52l-2.9-3.7c-0.8,1.4-1.8,2.6-2.9,3.6l-1.1-1.3c0.9-0.8,1.6-1.8,2.1-2.8c0.6-1.2,0.9-2.6,0.9-4
					v-2.8h2v2.4c0,1-0.1,2-0.3,3l3.6,4.2L119.4,52L119.4,52L119.4,52z M109.8,52.6h-3.5v-2.2h3.5V52.6z M111.7,40.9h-2v7.4h2V40.9
					L111.7,40.9z M104.5,45.5c-0.8,1.2-1.9,2.1-3.2,2.8l-1-1.3c0.8-0.5,1.5-1,2.1-1.7c0.7-0.9,1-2.1,1-3.2v-1.1h2V42
					c0,0.6-0.1,1.2-0.2,1.8l3.6,3l-1.2,1.5L104.5,45.5L104.5,45.5L104.5,45.5z M104.3,48.8v5.3h7.4v-5.3L104.3,48.8L104.3,48.8z
					 M95.1,42.7h-3.3c-0.8,0-1.5-0.2-2.2-0.5l0.7-1.3c0.5,0.2,1,0.4,1.5,0.3h3.3L95.1,42.7L95.1,42.7L95.1,42.7z M97.7,52.6h-3.5
					v-2.2h3.5V52.6z M92.3,48.8v5.3h7.4v-5.3L92.3,48.8L92.3,48.8z M95.4,44.4l-1.7,0.7c0.2,0.1,0.3,0.3,0.4,0.5
					c0,0.7-0.6,1.3-1.4,1.3c0,0-0.1,0-0.1,0c-0.9,0-1.4-0.5-1.4-1.2c0-1.3,1.5-1.4,2.2-1.4h2.9v1.2h1.6v2.8h2v-7.4h-2v3.2h-1.1v-1.2
					H89v1.4h0.9c-0.5,0.4-0.7,1-0.7,1.6c0,1.6,1.5,2.4,3.4,2.4s3.3-0.8,3.3-2.4C95.9,45.4,95.7,44.9,95.4,44.4L95.4,44.4L95.4,44.4z
					 M70.9,48.3c2.1,0,3.8,1.3,3.8,3s-1.7,3-3.8,3s-3.8-1.3-3.8-3S68.8,48.3,70.9,48.3z M74.6,40.9h-2v7.4h2v-2.8H76v-1.5h-1.5V40.9
					L74.6,40.9z M70.9,49.8c-0.9,0.1-1.5,0.8-1.4,1.7c0.1,0.8,0.8,1.5,1.7,1.4c0.8-0.1,1.4-0.7,1.4-1.5
					C72.6,50.5,71.8,49.8,70.9,49.8L70.9,49.8z M70.3,45.6c0.7-1,1.1-2.2,1.1-3.5v-0.9h-4.6c-0.5,0-1-0.1-1.5-0.3l-0.7,1.3
					c0.7,0.4,1.4,0.5,2.2,0.5h2.5c-0.2,2.2-2,3.6-4.8,4.8l0.8,1.3C67.4,48.2,69.2,47.2,70.3,45.6L70.3,45.6L70.3,45.6z M154.1,42.1
					c-0.9,0-1.6,0.7-1.6,1.6c0,0.9,0.7,1.6,1.6,1.6c0.9,0,1.6-0.7,1.6-1.6c0,0,0,0,0,0C155.7,42.8,155,42.1,154.1,42.1L154.1,42.1
					L154.1,42.1L154.1,42.1z"/>
				<path id="_패스_3553" class="st2" d="M52.2,57.8h0.7v1.4H54v-1.4h0.7v3.4H54v-1.6h-1.2v1.6h-0.7V57.8z M55.2,57.8h2v0.4h-1.3
					v1h1.3v0.4h-1.3v1.2h1.4v0.4h-2V57.8L55.2,57.8L55.2,57.8z M58.5,57.8h0.7l1.2,3.4h-0.7l-0.3-1h-1.2l-0.3,1h-0.6L58.5,57.8
					C58.5,57.8,58.5,57.8,58.5,57.8z M58.3,59.9h0.9l-0.5-1.5h0L58.3,59.9L58.3,59.9L58.3,59.9z M60.5,57.8h0.6v3h1.3v0.4h-1.9
					L60.5,57.8L60.5,57.8L60.5,57.8z M63.1,58.2v3h0.6v-3h0.8v-0.4h-2.3v0.4L63.1,58.2L63.1,58.2z M64.8,57.8h0.6v1.4h1.2v-1.4h0.6
					v3.4h-0.6v-1.6h-1.2v1.6h-0.6V57.8z M69.4,57.8h0.6v3.4h-0.6V57.8z M70.7,57.8h0.7l1.3,2.5h0v-2.5h0.5v3.4h-0.6l-1.4-2.7h0v2.7
					h-0.5L70.7,57.8L70.7,57.8L70.7,57.8z M75.6,58.3c0,0-0.1,0-0.1-0.1s-0.1,0-0.2-0.1c-0.1,0-0.2,0-0.3-0.1c-0.1,0-0.2,0-0.3,0
					c-0.1,0-0.2,0-0.3,0.1c-0.1,0.1-0.1,0.2-0.1,0.2c0,0.1,0,0.2,0.1,0.3c0.1,0.1,0.2,0.2,0.3,0.2c0.1,0.1,0.3,0.1,0.4,0.2
					c0.1,0.1,0.3,0.2,0.4,0.2c0.1,0.1,0.2,0.2,0.3,0.3s0.1,0.3,0.1,0.5c0,0.2,0,0.3-0.1,0.5c-0.1,0.1-0.1,0.2-0.3,0.3
					c-0.1,0.1-0.3,0.2-0.4,0.2c-0.2,0-0.3,0-0.5,0c-0.1,0-0.2,0-0.3,0c-0.1,0-0.2,0-0.3,0s-0.1,0-0.2,0s-0.1,0-0.1,0v-0.6
					c0.1,0,0.1,0.1,0.2,0.1s0.2,0.1,0.2,0.1c0.1,0,0.2,0.1,0.3,0.1c0.1,0,0.2,0,0.3,0c0.1,0,0.1,0,0.2,0c0.1,0,0.1,0,0.2-0.1
					s0.1-0.1,0.1-0.1c0-0.1,0.1-0.1,0.1-0.2c0-0.1,0-0.2-0.1-0.3c-0.1-0.1-0.2-0.2-0.3-0.2c-0.1-0.1-0.2-0.2-0.4-0.2
					s-0.3-0.2-0.4-0.2c-0.1-0.1-0.2-0.2-0.3-0.3c-0.1-0.1-0.1-0.3-0.1-0.5c0-0.2,0.1-0.5,0.3-0.7c0.2-0.2,0.6-0.2,0.9-0.2
					c0.1,0,0.2,0,0.3,0c0.1,0,0.2,0,0.2,0s0.1,0,0.2,0s0.1,0,0.1,0L75.6,58.3L75.6,58.3L75.6,58.3z M78.6,60c0,0.2,0,0.3,0,0.5
					c0,0.3-0.2,0.6-0.5,0.7c-0.2,0.1-0.4,0.1-0.7,0.1c-0.2,0-0.4,0-0.6-0.1c-0.1-0.1-0.3-0.2-0.4-0.3c-0.1-0.1-0.1-0.2-0.2-0.4
					c0-0.2,0-0.3,0-0.5v-2.2h0.6V60c0,0.1,0,0.2,0,0.4c0,0.1,0,0.2,0.1,0.3c0,0.1,0.1,0.1,0.2,0.2c0.1,0,0.2,0.1,0.3,0.1
					c0.1,0,0.2,0,0.3-0.1c0.1,0,0.1-0.1,0.2-0.2c0-0.1,0.1-0.2,0.1-0.3c0-0.1,0-0.2,0-0.4v-2.2h0.6L78.6,60L78.6,60L78.6,60z
					 M79.2,57.8H80c0.2,0,0.4,0,0.5,0c0.2,0,0.3,0.1,0.5,0.1c0.1,0.1,0.2,0.2,0.3,0.3c0.1,0.1,0.1,0.3,0.1,0.5c0,0.1,0,0.2-0.1,0.3
					c0,0.1-0.1,0.2-0.2,0.2c-0.1,0.1-0.1,0.1-0.2,0.1s-0.2,0.1-0.2,0.1l0,0c0.1,0,0.2,0.1,0.3,0.1c0.1,0,0.1,0.1,0.2,0.2
					c0.1,0.1,0.1,0.2,0.1,0.2s0.1,0.2,0.1,0.3l0.2,0.9h-0.6l-0.1-0.6c0-0.2-0.1-0.3-0.1-0.4c0-0.1-0.1-0.2-0.1-0.3
					c-0.1-0.1-0.1-0.1-0.2-0.1c-0.1,0-0.2,0-0.3,0h-0.2v1.5h-0.6L79.2,57.8L79.2,57.8L79.2,57.8z M79.8,59.3H80c0.1,0,0.2,0,0.3,0
					c0.1,0,0.2,0,0.2-0.1c0.1,0,0.1-0.1,0.2-0.2c0-0.1,0.1-0.2,0.1-0.3c0-0.1,0-0.2-0.1-0.3c0-0.1-0.1-0.1-0.2-0.2
					c-0.1,0-0.2-0.1-0.2-0.1c-0.1,0-0.2,0-0.3,0h-0.1L79.8,59.3L79.8,59.3L79.8,59.3z M82.7,57.8l-1.2,3.4h0.6l0.3-1h1.2l0.3,1h0.7
					l-1.2-3.4H82.7L82.7,57.8L82.7,57.8z M82.5,59.8l0.5-1.5h0l0.5,1.5H82.5L82.5,59.8z M84.7,57.8h0.7l1.3,2.5h0v-2.5h0.5v3.4h-0.6
					l-1.4-2.7h0v2.7h-0.5L84.7,57.8L84.7,57.8L84.7,57.8z M90.2,61c-0.1,0-0.2,0.1-0.4,0.1c-0.2,0-0.4,0.1-0.6,0.1
					c-0.2,0-0.5,0-0.7-0.2c-0.2-0.1-0.3-0.2-0.5-0.4c-0.1-0.2-0.2-0.4-0.3-0.6c-0.1-0.4-0.1-0.9,0-1.3c0-0.2,0.1-0.4,0.2-0.5
					c0.1-0.2,0.3-0.3,0.4-0.4c0.2-0.1,0.4-0.1,0.6-0.1c0.3,0,0.6,0.1,0.9,0.3c0.2,0.2,0.3,0.4,0.3,0.7h-0.7c0-0.1,0-0.1,0-0.2
					c0-0.1,0-0.2-0.1-0.2c0-0.1-0.1-0.1-0.1-0.2c-0.1,0-0.2-0.1-0.2-0.1c-0.1,0-0.2,0-0.4,0.1c-0.1,0.1-0.2,0.2-0.2,0.3
					c-0.1,0.1-0.1,0.3-0.1,0.4c0,0.1,0,0.3,0,0.4v0.2c0,0.1,0,0.2,0,0.3c0,0.1,0.1,0.2,0.1,0.3s0.1,0.2,0.2,0.3s0.2,0.2,0.3,0.2
					c0.1,0.1,0.2,0.1,0.4,0.1c0.1,0,0.2,0,0.3,0c0.1,0,0.2-0.1,0.2-0.1c0.1,0,0.1-0.1,0.2-0.1c0.1,0,0.1-0.1,0.1-0.1L90.2,61
					L90.2,61L90.2,61z M90.6,57.8h2v0.4h-1.3v1h1.3v0.4h-1.3v1.2h1.4v0.4h-2L90.6,57.8L90.6,57.8L90.6,57.8z M94.6,57.8h0.8
					c0.2,0,0.4,0,0.5,0c0.2,0,0.3,0.1,0.5,0.1c0.1,0.1,0.2,0.2,0.3,0.3c0.1,0.1,0.1,0.3,0.1,0.5c0,0.1,0,0.2-0.1,0.3
					c0,0.1-0.1,0.2-0.2,0.2c-0.1,0.1-0.1,0.1-0.2,0.1s-0.2,0.1-0.2,0.1l0,0c0.1,0,0.2,0.1,0.3,0.1c0.1,0,0.1,0.1,0.2,0.2
					c0.1,0.1,0.1,0.2,0.1,0.2s0.1,0.2,0.1,0.3l0.2,0.9h-0.6l-0.1-0.6c0-0.2-0.1-0.3-0.1-0.4c0-0.1-0.1-0.2-0.1-0.3
					c-0.1-0.1-0.1-0.1-0.2-0.1c-0.1,0-0.2,0-0.3,0h-0.2v1.5h-0.6L94.6,57.8L94.6,57.8L94.6,57.8z M95.3,59.3h0.1c0.1,0,0.2,0,0.3,0
					c0.1,0,0.2,0,0.2-0.1c0.1,0,0.1-0.1,0.2-0.2c0-0.1,0.1-0.2,0.1-0.3c0-0.1,0-0.2-0.1-0.3c0-0.1-0.1-0.1-0.2-0.2
					c-0.1,0-0.2-0.1-0.2-0.1c-0.1,0-0.2,0-0.3,0h-0.1L95.3,59.3L95.3,59.3L95.3,59.3z M97.3,57.8h2v0.4h-1.3v1h1.3v0.4h-1.3v1.2h1.4
					v0.4h-2L97.3,57.8L97.3,57.8L97.3,57.8z M99.3,57.8l1.2,3.4h0.7l1.2-3.4h-0.6l-0.9,2.6h0l-0.9-2.6H99.3L99.3,57.8z M102.4,57.8
					h0.6v3.4h-0.6V57.8z M103.6,57.8h2v0.4h-1.3v1h1.3v0.4h-1.3v1.2h1.4v0.4h-2L103.6,57.8L103.6,57.8L103.6,57.8z M105.8,57.8h0.6
					l0.5,2.6h0l0.9-2.6h0.3l0.9,2.6h0l0.5-2.6h0.5l-0.7,3.4h-0.6l-0.9-2.5h0l-0.9,2.5h-0.6L105.8,57.8L105.8,57.8L105.8,57.8z
					 M112.4,59.8c-0.1,0.2-0.1,0.5,0,0.7c0.1,0.2,0.3,0.3,0.5,0.3c0.2,0,0.4-0.1,0.6-0.3l-0.8-1.1C112.6,59.5,112.5,59.7,112.4,59.8
					L112.4,59.8L112.4,59.8z M112.8,57.8c-0.1,0.1-0.2,0.2-0.1,0.3c0,0.2,0.1,0.3,0.1,0.4l0.1,0.2c0.1-0.1,0.2-0.2,0.2-0.4
					c0.1-0.2,0.1-0.3,0-0.5C113.1,57.8,113,57.8,112.8,57.8C112.8,57.8,112.8,57.8,112.8,57.8C112.8,57.8,112.8,57.8,112.8,57.8z
					 M114,60.4l0.5,0.7h-0.6l-0.2-0.3c-0.3,0.2-0.6,0.4-1,0.4c-0.3,0-0.6-0.1-0.8-0.4c-0.1-0.2-0.2-0.4-0.1-0.7
					c0.1-0.2,0.2-0.5,0.4-0.6c0.1-0.1,0.3-0.2,0.4-0.3c-0.2-0.4-0.3-0.6-0.3-0.6c-0.1-0.2,0-0.5,0.1-0.6c0.2-0.2,0.5-0.3,0.8-0.3
					c0.1,0,0.2,0,0.3,0.1c0.1,0.1,0.2,0.2,0.2,0.3c0.1,0.3,0,0.5-0.1,0.8c-0.1,0.1-0.2,0.3-0.3,0.4l0.7,1c0.1-0.1,0.2-0.2,0.2-0.4
					v-0.5h0.3v0.3C114.3,59.9,114.2,60.2,114,60.4L114,60.4L114,60.4z M117.2,57.8h0.7l1.2,3.4h-0.7l-0.3-1h-1.2l-0.3,1H116
					L117.2,57.8L117.2,57.8z M117,59.8h0.9l-0.5-1.5h0L117,59.8L117,59.8L117,59.8z M121.1,58.3c0,0-0.1,0-0.1-0.1s-0.1,0-0.2-0.1
					c-0.1,0-0.2,0-0.3-0.1c-0.1,0-0.2,0-0.3,0c-0.1,0-0.2,0-0.3,0.1c-0.1,0.1-0.1,0.2-0.1,0.2c0,0.1,0,0.2,0.1,0.3
					c0.1,0.1,0.2,0.2,0.3,0.2c0.1,0.1,0.3,0.1,0.4,0.2c0.1,0.1,0.3,0.2,0.4,0.2c0.1,0.1,0.2,0.2,0.3,0.3s0.1,0.3,0.1,0.5
					c0,0.2,0,0.3-0.1,0.5c-0.1,0.1-0.2,0.2-0.3,0.3c-0.1,0.1-0.3,0.1-0.4,0.2c-0.2,0-0.3,0-0.5,0c-0.1,0-0.2,0-0.3,0
					c-0.1,0-0.2,0-0.3,0s-0.1,0-0.2,0s-0.1,0-0.1,0v-0.6c0.1,0,0.1,0.1,0.2,0.1s0.2,0.1,0.2,0.1c0.1,0,0.2,0.1,0.3,0.1
					c0.1,0,0.2,0,0.3,0c0.1,0,0.1,0,0.2,0c0.1,0,0.1,0,0.2-0.1s0.1-0.1,0.1-0.1c0-0.1,0.1-0.1,0.1-0.2c0-0.1,0-0.2-0.1-0.3
					c-0.1-0.1-0.2-0.2-0.3-0.2c-0.1-0.1-0.2-0.2-0.4-0.2s-0.3-0.2-0.4-0.2c-0.1-0.1-0.2-0.2-0.3-0.3c-0.1-0.1-0.1-0.3-0.1-0.5
					c0-0.2,0.1-0.5,0.3-0.7c0.2-0.2,0.6-0.2,0.9-0.2c0.1,0,0.2,0,0.3,0c0.1,0,0.2,0,0.2,0s0.1,0,0.2,0s0.1,0,0.1,0L121.1,58.3
					L121.1,58.3L121.1,58.3z M123.5,58.3c0,0-0.1,0-0.1-0.1s-0.1,0-0.2-0.1c-0.1,0-0.2,0-0.3-0.1c-0.1,0-0.2,0-0.3,0
					c-0.1,0-0.2,0-0.3,0.1c-0.1,0.1-0.1,0.2-0.1,0.2c0,0.1,0,0.2,0.1,0.3c0.1,0.1,0.2,0.2,0.3,0.2c0.1,0.1,0.3,0.1,0.4,0.2
					c0.1,0.1,0.3,0.2,0.4,0.2c0.1,0.1,0.2,0.2,0.3,0.3s0.1,0.3,0.1,0.5c0,0.2,0,0.3-0.1,0.5c-0.1,0.1-0.1,0.2-0.3,0.3
					c-0.1,0.1-0.3,0.2-0.4,0.2c-0.2,0-0.3,0-0.5,0c-0.1,0-0.2,0-0.3,0c-0.1,0-0.2,0-0.3,0s-0.1,0-0.2,0s-0.1,0-0.1,0v-0.6
					c0.1,0,0.1,0.1,0.2,0.1s0.2,0.1,0.2,0.1c0.1,0,0.2,0.1,0.3,0.1c0.1,0,0.2,0,0.3,0c0.1,0,0.1,0,0.2,0c0.1,0,0.1,0,0.2-0.1
					s0.1-0.1,0.1-0.1c0-0.1,0.1-0.1,0.1-0.2c0-0.1,0-0.2-0.1-0.3c-0.1-0.1-0.2-0.2-0.3-0.2c-0.1-0.1-0.2-0.2-0.4-0.2
					s-0.3-0.2-0.4-0.2c-0.1-0.1-0.2-0.2-0.3-0.3c-0.1-0.1-0.1-0.3-0.1-0.5c0-0.2,0.1-0.5,0.3-0.7c0.2-0.2,0.6-0.2,0.9-0.2
					c0.1,0,0.2,0,0.3,0c0.1,0,0.2,0,0.2,0s0.1,0,0.2,0s0.1,0,0.1,0L123.5,58.3L123.5,58.3L123.5,58.3z M124.1,57.8h2v0.4h-1.3v1h1.3
					v0.4h-1.3v1.2h1.4v0.4h-2L124.1,57.8L124.1,57.8L124.1,57.8z M128.3,58.3c0,0-0.1,0-0.1-0.1s-0.1,0-0.2-0.1
					c-0.1,0-0.2,0-0.3-0.1c-0.1,0-0.2,0-0.3,0c-0.1,0-0.2,0-0.3,0.1c-0.1,0.1-0.1,0.2-0.1,0.2c0,0.1,0,0.2,0.1,0.3
					c0.1,0.1,0.2,0.2,0.3,0.2c0.1,0.1,0.3,0.1,0.4,0.2c0.1,0.1,0.3,0.2,0.4,0.2c0.1,0.1,0.2,0.2,0.3,0.3s0.1,0.3,0.1,0.5
					c0,0.2,0,0.3-0.1,0.5c-0.1,0.1-0.2,0.2-0.3,0.3c-0.1,0.1-0.3,0.2-0.4,0.2c-0.2,0-0.3,0-0.5,0c-0.1,0-0.2,0-0.3,0
					c-0.1,0-0.2,0-0.3,0s-0.1,0-0.2,0s-0.1,0-0.1,0v-0.6c0.1,0,0.1,0.1,0.2,0.1s0.2,0.1,0.2,0.1c0.1,0,0.2,0.1,0.3,0.1
					c0.1,0,0.2,0,0.3,0c0.1,0,0.1,0,0.2,0c0.1,0,0.1,0,0.2-0.1s0.1-0.1,0.1-0.1c0-0.1,0.1-0.1,0.1-0.2c0-0.1,0-0.2-0.1-0.3
					c-0.1-0.1-0.2-0.2-0.3-0.2c-0.1-0.1-0.2-0.2-0.4-0.2s-0.3-0.2-0.4-0.2c-0.1-0.1-0.2-0.2-0.3-0.3c-0.1-0.1-0.1-0.3-0.1-0.5
					c0-0.2,0.1-0.5,0.3-0.7c0.2-0.2,0.6-0.2,0.9-0.2c0.1,0,0.2,0,0.3,0c0.1,0,0.2,0,0.2,0s0.1,0,0.2,0s0.1,0,0.1,0L128.3,58.3
					L128.3,58.3L128.3,58.3z M130.7,58.3c0,0-0.1,0-0.1-0.1s-0.1,0-0.2-0.1c-0.1,0-0.2,0-0.3-0.1c-0.1,0-0.2,0-0.3,0
					c-0.1,0-0.2,0-0.3,0.1c-0.1,0.1-0.1,0.2-0.1,0.2c0,0.1,0,0.2,0.1,0.3c0.1,0.1,0.2,0.2,0.3,0.2c0.1,0.1,0.3,0.1,0.4,0.2
					c0.1,0.1,0.3,0.2,0.4,0.2c0.1,0.1,0.2,0.2,0.3,0.3s0.1,0.3,0.1,0.5c0,0.2,0,0.3-0.1,0.5c-0.1,0.1-0.2,0.2-0.3,0.3
					c-0.1,0.1-0.3,0.2-0.4,0.2c-0.2,0-0.3,0-0.5,0c-0.1,0-0.2,0-0.3,0c-0.1,0-0.2,0-0.3,0s-0.1,0-0.2,0s-0.1,0-0.1,0v-0.6
					c0.1,0,0.1,0.1,0.2,0.1s0.2,0.1,0.2,0.1c0.1,0,0.2,0.1,0.3,0.1c0.1,0,0.2,0,0.3,0c0.1,0,0.1,0,0.2,0c0.1,0,0.1,0,0.2-0.1
					s0.1-0.1,0.1-0.1c0-0.1,0.1-0.1,0.1-0.2c0-0.1,0-0.2-0.1-0.3c-0.1-0.1-0.2-0.2-0.3-0.2c-0.1-0.1-0.2-0.2-0.4-0.2
					s-0.3-0.2-0.4-0.2c-0.1-0.1-0.2-0.2-0.3-0.3c-0.1-0.1-0.1-0.3-0.1-0.5c0-0.2,0.1-0.5,0.3-0.7c0.2-0.2,0.6-0.2,0.9-0.2
					c0.1,0,0.2,0,0.3,0c0.1,0,0.2,0,0.2,0s0.1,0,0.2,0s0.1,0,0.1,0L130.7,58.3L130.7,58.3L130.7,58.3z M131.3,57.8h0.8l1,2.8l0,0
					l1-2.8h0.8v3.4h-0.6v-2.9h0l-1,2.9h-0.5l-1-2.8h0v2.8h-0.5L131.3,57.8L131.3,57.8L131.3,57.8z M135.5,57.8h2v0.4h-1.3v1h1.3v0.4
					h-1.3v1.2h1.4v0.4h-2L135.5,57.8L135.5,57.8L135.5,57.8z M137.9,57.8h0.7l1.3,2.5h0v-2.5h0.5v3.4h-0.6l-1.4-2.7h0v2.7h-0.5
					L137.9,57.8L137.9,57.8L137.9,57.8z M141.5,58.2h-0.8v-0.4h2.3v0.4h-0.8v3h-0.6L141.5,58.2L141.5,58.2L141.5,58.2z M146.6,58.3
					c0,0-0.1,0-0.1-0.1s-0.1,0-0.2-0.1c-0.1,0-0.2,0-0.3-0.1c-0.1,0-0.2,0-0.3,0c-0.1,0-0.2,0-0.3,0.1c-0.1,0.1-0.1,0.2-0.1,0.2
					c0,0.1,0,0.2,0.1,0.3c0.1,0.1,0.2,0.2,0.3,0.2c0.1,0.1,0.3,0.1,0.4,0.2c0.1,0.1,0.3,0.2,0.4,0.2c0.1,0.1,0.2,0.2,0.3,0.3
					s0.1,0.3,0.1,0.5c0,0.2,0,0.3-0.1,0.5c-0.1,0.1-0.2,0.2-0.3,0.3c-0.1,0.1-0.3,0.2-0.4,0.2c-0.2,0-0.3,0-0.5,0
					c-0.1,0-0.2,0-0.3,0c-0.1,0-0.2,0-0.3,0s-0.1,0-0.2,0s-0.1,0-0.1,0v-0.6c0.1,0,0.1,0.1,0.2,0.1s0.2,0.1,0.2,0.1
					c0.1,0,0.2,0.1,0.3,0.1c0.1,0,0.2,0,0.3,0c0.1,0,0.1,0,0.2,0c0.1,0,0.1,0,0.2-0.1s0.1-0.1,0.1-0.1c0-0.1,0.1-0.1,0.1-0.2
					c0-0.1,0-0.2-0.1-0.3c-0.1-0.1-0.2-0.2-0.3-0.2c-0.1-0.1-0.2-0.2-0.4-0.2s-0.3-0.2-0.4-0.2c-0.1-0.1-0.2-0.2-0.3-0.3
					c-0.1-0.1-0.1-0.3-0.1-0.5c0-0.2,0.1-0.5,0.3-0.7c0.2-0.2,0.6-0.2,0.9-0.2c0.1,0,0.2,0,0.3,0c0.1,0,0.2,0,0.2,0s0.1,0,0.2,0
					s0.1,0,0.1,0L146.6,58.3L146.6,58.3L146.6,58.3z M147.2,57.8h2v0.4h-1.3v1h1.3v0.4h-1.3v1.2h1.4v0.4h-2L147.2,57.8L147.2,57.8
					L147.2,57.8z M149.6,57.8h0.8c0.2,0,0.4,0,0.5,0c0.2,0,0.3,0.1,0.5,0.1c0.1,0.1,0.2,0.2,0.3,0.3c0.1,0.1,0.1,0.3,0.1,0.5
					c0,0.1,0,0.2-0.1,0.3c0,0.1-0.1,0.2-0.2,0.2c-0.1,0.1-0.1,0.1-0.2,0.1s-0.2,0.1-0.2,0.1l0,0c0.1,0,0.2,0.1,0.3,0.1
					c0.1,0,0.1,0.1,0.2,0.2c0.1,0.1,0.1,0.2,0.1,0.2s0.1,0.2,0.1,0.3l0.2,0.9h-0.6l-0.1-0.6c0-0.1-0.1-0.3-0.1-0.4
					c0-0.1-0.1-0.2-0.1-0.3c-0.1-0.1-0.1-0.1-0.2-0.1c-0.1,0-0.2,0-0.3,0h-0.2v1.5h-0.6L149.6,57.8L149.6,57.8L149.6,57.8z
					 M150.2,59.3h0.1c0.1,0,0.2,0,0.3,0c0.1,0,0.2,0,0.2-0.1c0.1,0,0.1-0.1,0.2-0.2c0-0.1,0.1-0.2,0.1-0.3c0-0.1,0-0.2-0.1-0.3
					c0-0.1-0.1-0.1-0.2-0.2c-0.1,0-0.2-0.1-0.2-0.1c-0.1,0-0.2,0-0.3,0h-0.1L150.2,59.3L150.2,59.3L150.2,59.3z M151.8,57.8l1.2,3.4
					h0.7l1.2-3.4h-0.6l-0.9,2.6h0l-0.9-2.6H151.8z M155,57.8h0.6v3.4H155V57.8L155,57.8z M158.5,61c-0.1,0-0.2,0.1-0.4,0.1
					c-0.2,0-0.4,0.1-0.6,0.1c-0.2,0-0.5,0-0.7-0.2c-0.2-0.1-0.3-0.2-0.5-0.4c-0.1-0.2-0.2-0.4-0.3-0.6c-0.1-0.4-0.1-0.9,0-1.3
					c0-0.2,0.1-0.4,0.2-0.5c0.1-0.2,0.3-0.3,0.4-0.4c0.2-0.1,0.4-0.1,0.6-0.1c0.3,0,0.6,0.1,0.9,0.3c0.2,0.2,0.3,0.4,0.3,0.7h-0.7
					c0-0.1,0-0.1,0-0.2c0-0.1,0-0.2-0.1-0.2c0-0.1-0.1-0.1-0.1-0.2c-0.1,0-0.2-0.1-0.2-0.1c-0.1,0-0.2,0-0.4,0.1
					c-0.1,0.1-0.2,0.2-0.2,0.3c-0.1,0.1-0.1,0.3-0.1,0.4c0,0.1,0,0.3,0,0.4v0.2c0,0.1,0,0.2,0,0.3c0,0.1,0.1,0.2,0.1,0.3
					s0.1,0.2,0.2,0.3s0.2,0.2,0.3,0.2c0.1,0.1,0.2,0.1,0.4,0.1c0.1,0,0.2,0,0.3,0c0.1,0,0.2-0.1,0.2-0.1c0.1,0,0.1-0.1,0.2-0.1
					c0.1,0,0.1-0.1,0.1-0.1L158.5,61L158.5,61L158.5,61z M158.9,57.8h2v0.4h-1.3v1h1.3v0.4h-1.3v1.2h1.4v0.4h-2L158.9,57.8
					L158.9,57.8L158.9,57.8z"/>
				<g id="_그룹_4549">
					<path id="_패스_3554" class="st3" d="M40.2,47.2c-1.2,1-2.8,1.6-3.7,2.3c-0.6,0.4-1,0.8-1,1.5c0-0.5,0.3-0.9,0.7-1.2
						c0.9-0.6,2.9-0.6,3.8-2.1C40.1,47.5,40.2,47.3,40.2,47.2z M40.2,47.2c0.1-0.4,0.2-0.7,0.3-1.1c0.5-0.4,0.9-0.9,1.3-1.4
						C41.6,45.7,41,46.5,40.2,47.2L40.2,47.2L40.2,47.2z M41.8,44.7c0.7-1,1.2-2.1,1.3-3.3c-0.3,0.6-0.7,1.2-1.1,1.8
						C42,43.6,41.9,44.1,41.8,44.7C41.8,44.7,41.8,44.7,41.8,44.7z M43.1,41.3c0.1-0.7,0-1.3-0.1-2c0.4-0.7,0.7-1.3,1-2.1
						C44.1,38.7,43.8,40.1,43.1,41.3C43.1,41.3,43.1,41.3,43.1,41.3z M44,37.3c0.9-2.3,0.8-4.4-0.6-5.8c-1.6-1.4-3.7-2.2-5.8-2.2
						c-0.6,0-1.2,0.1-1.8,0.3c-1.7,0.7-2.2,2.5-2.3,5.2c0.2-1.1,0.9-2.1,1.9-2.7c1.9-0.9,5.4,0,7.2,1.9C43.4,34.9,43.9,36,44,37.3
						L44,37.3L44,37.3z M32.5,59.8c-0.2-1-0.3-2.1-0.3-3.1c0-0.5,0-0.9,0.1-1.4c0.1-0.5,0.1-0.9,0.1-1.4c0.2,0.8,0.2,1.6,0.2,2.5
						c0,0.8-0.1,1.6-0.1,2.5C32.5,59.1,32.5,59.5,32.5,59.8L32.5,59.8L32.5,59.8z M32.5,59.8c0,0.8,0.1,1.7,0.3,2.5
						c0-0.5,0-1.1,0-1.6C32.7,60.4,32.6,60.1,32.5,59.8C32.5,59.8,32.5,59.8,32.5,59.8z M32.8,62.3c0.1,0.3,0.2,0.6,0.3,0.9
						c0,0.5,0,1.1,0,1.6C33,63.9,32.9,63.1,32.8,62.3L32.8,62.3z M33.2,64.7c0,0.8,0.1,1.7,0.3,2.5c0-0.5,0-1.1,0-1.6
						C33.3,65.3,33.2,65,33.2,64.7L33.2,64.7L33.2,64.7z M44,64.7c0.9,2.3,0.8,4.4-0.6,5.8c-1.6,1.4-3.7,2.2-5.8,2.2
						c-0.6,0-1.2-0.1-1.8-0.3c-1.7-0.7-2.2-2.5-2.3-5.2c0.2,1.1,0.9,2.1,1.9,2.7c1.9,0.9,5.4,0,7.2-1.9C43.4,67.1,43.9,65.9,44,64.7
						L44,64.7L44,64.7z M43.1,60.6c0.1,0.7,0,1.3-0.1,2c0.4,0.7,0.7,1.3,1,2.1C44.1,63.3,43.8,61.9,43.1,60.6
						C43.1,60.6,43.1,60.6,43.1,60.6z M41.8,57.3c0.7,1,1.2,2.1,1.3,3.3c-0.3-0.6-0.7-1.2-1.1-1.7C42,58.4,41.9,57.8,41.8,57.3
						L41.8,57.3L41.8,57.3z M40.2,54.8c0.1,0.4,0.2,0.7,0.3,1.1c0.5,0.4,0.9,0.9,1.3,1.4C41.6,56.3,41,55.5,40.2,54.8L40.2,54.8
						L40.2,54.8z M40.2,54.8c-1.2-1-2.8-1.6-3.7-2.3c-0.6-0.4-1-0.8-1-1.5c0,0.5,0.3,0.9,0.7,1.2c0.9,0.6,2.9,0.6,3.8,2.1
						C40.1,54.5,40.2,54.6,40.2,54.8L40.2,54.8L40.2,54.8z M32.5,42.2c-0.2,1-0.3,2.1-0.3,3.1c0,0.5,0,0.9,0.1,1.4
						c0.1,0.5,0.1,0.9,0.1,1.4c0.2-0.8,0.2-1.6,0.2-2.5c0-0.8-0.1-1.6-0.1-2.5C32.5,42.8,32.5,42.5,32.5,42.2L32.5,42.2L32.5,42.2z
						 M32.5,42.2c0-0.8,0.1-1.7,0.3-2.5c0,0.5,0,1.1,0,1.6C32.7,41.6,32.6,41.9,32.5,42.2C32.5,42.2,32.5,42.2,32.5,42.2z
						 M32.8,39.7c0.1-0.3,0.2-0.6,0.3-0.9c0-0.5,0-1.1,0-1.6C33,38,32.9,38.9,32.8,39.7L32.8,39.7z M33.1,37.2
						c0-0.8,0.1-1.7,0.3-2.5c0,0.5,0,1,0,1.6C33.3,36.7,33.2,36.9,33.1,37.2L33.1,37.2z M32.4,48.1c-0.5,1.3-1.9,2-3.2,1.5
						c-0.7-0.2-1.2-0.8-1.5-1.5c0.4,0.9,1.3,1.5,2.3,1.5C31.1,49.6,32,49,32.4,48.1C32.4,48.1,32.4,48.1,32.4,48.1z M27.6,42.2
						c0,0.3,0,0.6,0,1c0,0.8,0,1.6-0.1,2.5c-0.1,0.8,0,1.7,0.2,2.5c0-0.5,0-0.9,0.1-1.4c0.1-0.5,0.1-0.9,0.1-1.4
						C28,44.3,27.9,43.2,27.6,42.2L27.6,42.2L27.6,42.2z M27.6,42.2c-0.1-0.3-0.2-0.6-0.3-0.9c0-0.5,0-1.1,0-1.6
						C27.5,40.5,27.6,41.4,27.6,42.2C27.6,42.2,27.6,42.2,27.6,42.2z M27.3,39.7c0-0.8-0.1-1.7-0.3-2.5c0,0.5,0,1,0,1.6
						C27.1,39.1,27.2,39.4,27.3,39.7L27.3,39.7z M27,37.2c-0.1-0.3-0.2-0.6-0.3-0.8c0-0.6,0-1.1,0-1.6C26.9,35.6,27,36.4,27,37.2
						L27,37.2z M16.1,37.3c0.1-1.2,0.6-2.4,1.4-3.3c1.8-1.9,5.3-2.8,7.2-1.9c1,0.5,1.7,1.5,1.9,2.7c-0.1-2.7-0.6-4.5-2.3-5.2
						c-0.6-0.2-1.2-0.3-1.8-0.3c-2.1,0-4.2,0.8-5.8,2.2C15.4,32.9,15.3,35,16.1,37.3L16.1,37.3z M16.1,64.7
						c-0.9,2.3-0.8,4.4,0.6,5.8c1.6,1.4,3.7,2.2,5.8,2.2c0.6,0,1.2-0.1,1.8-0.3c1.7-0.7,2.2-2.5,2.3-5.2c-0.2,1.1-0.9,2.1-1.9,2.7
						c-1.9,0.9-5.4,0-7.2-1.9C16.7,67.1,16.2,65.9,16.1,64.7L16.1,64.7L16.1,64.7z M27.6,59.8c0.2-1,0.3-2.1,0.3-3.1
						c0-0.5,0-0.9-0.1-1.4c-0.1-0.5-0.1-0.9-0.1-1.4c-0.2,0.8-0.2,1.6-0.2,2.5c0,0.8,0.1,1.6,0.1,2.5C27.6,59.1,27.6,59.5,27.6,59.8
						L27.6,59.8L27.6,59.8z M27.6,59.8c0,0.8-0.1,1.7-0.3,2.5c0-0.5,0-1.1,0-1.6C27.4,60.4,27.5,60.1,27.6,59.8
						C27.6,59.8,27.6,59.8,27.6,59.8z M27.3,62.3c-0.1,0.3-0.2,0.6-0.3,0.9c0,0.5,0,1.1,0,1.6C27.2,63.9,27.3,63.1,27.3,62.3
						L27.3,62.3z M27,64.7c0,0.8-0.1,1.7-0.3,2.5c0-0.5,0-1.1,0-1.6C26.8,65.3,26.9,65,27,64.7L27,64.7L27,64.7z M32.4,53.9
						c-0.5-1.3-1.9-2-3.2-1.5c-0.7,0.2-1.2,0.8-1.5,1.5c0.4-0.9,1.3-1.5,2.3-1.5C31.1,52.4,32,53,32.4,53.9L32.4,53.9z M17,41.3
						c-0.7-1.2-1-2.7-0.9-4.1c0.3,0.7,0.6,1.4,1,2.1C17,40,16.9,40.7,17,41.3C17,41.3,17,41.3,17,41.3z M18.3,44.6
						c-0.1-0.5-0.2-1-0.2-1.6c-0.4-0.5-0.8-1.1-1.1-1.8C17.1,42.5,17.6,43.7,18.3,44.6C18.3,44.6,18.3,44.6,18.3,44.6z M19.9,47.1
						c-0.8-0.6-1.3-1.5-1.6-2.5c0.4,0.5,0.8,1,1.3,1.4C19.7,46.4,19.8,46.8,19.9,47.1L19.9,47.1z M19.9,54.8
						c-0.1,0.4-0.2,0.7-0.3,1.1c-0.5,0.4-0.9,0.9-1.3,1.4C18.6,56.3,19.1,55.4,19.9,54.8L19.9,54.8L19.9,54.8z M18.3,57.3
						c-0.7,1-1.2,2.1-1.3,3.3c0.3-0.6,0.7-1.2,1.1-1.7C18.1,58.3,18.2,57.8,18.3,57.3L18.3,57.3L18.3,57.3z M17,60.6
						c-0.1,0.7,0,1.3,0.1,2c-0.4,0.7-0.7,1.3-1,2.1C16,63.3,16.4,61.9,17,60.6C17,60.6,17,60.6,17,60.6z M19.9,47.1
						c1.2,1,2.8,1.6,3.7,2.3c0.6,0.4,1,0.8,1,1.5c0-0.5-0.3-0.9-0.7-1.2c-0.9-0.6-2.9-0.6-3.8-2.1C20.1,47.5,20,47.3,19.9,47.1
						L19.9,47.1L19.9,47.1z M19.9,54.8c1.2-1,2.8-1.6,3.7-2.3c0.6-0.4,1-0.8,1-1.5c0,0.5-0.3,0.9-0.7,1.2c-0.9,0.6-2.9,0.6-3.8,2.1
						C20.1,54.5,20,54.6,19.9,54.8L19.9,54.8L19.9,54.8z"/>
					<path id="_패스_3555" class="st4" d="M30.1,49.8c1.1,0,2-0.7,2.3-1.7c-0.5,1.3-1.9,2-3.2,1.5c-0.7-0.2-1.2-0.8-1.5-1.5
						C28,49.1,29,49.8,30.1,49.8L30.1,49.8z M33.1,38.9c0-0.5,0-1.1,0-1.6c0.1-0.3,0.2-0.6,0.3-0.9v1.8
						C33.3,38.4,33.2,38.6,33.1,38.9L33.1,38.9L33.1,38.9z M32.8,41.3c0.1-0.2,0.2-0.4,0.3-0.7c0-0.6,0-1.2,0-1.8
						c-0.1,0.3-0.2,0.6-0.3,0.9C32.8,40.3,32.8,40.8,32.8,41.3C32.8,41.3,32.8,41.3,32.8,41.3z M32.4,48.1c0.2-0.8,0.2-1.6,0.2-2.5
						c0-0.8-0.1-1.6-0.1-2.5c0-0.3,0-0.6,0-1c0.1-0.3,0.2-0.6,0.3-0.9C32.8,43.8,33,46.5,32.4,48.1L32.4,48.1L32.4,48.1z M27.7,48.1
						c-0.6-1.6-0.4-4.3-0.4-6.8c0.1,0.3,0.2,0.6,0.3,0.9c0,0.3,0,0.6,0,1c0,0.8,0,1.6-0.1,2.5C27.5,46.5,27.6,47.3,27.7,48.1
						L27.7,48.1L27.7,48.1z M27.3,41.3c0-0.5,0-1.1,0-1.6c-0.1-0.3-0.2-0.6-0.3-0.9c0,0.6,0,1.2,0,1.8
						C27.1,40.9,27.2,41.1,27.3,41.3C27.3,41.3,27.3,41.3,27.3,41.3z M27,38.9c-0.1-0.2-0.2-0.4-0.3-0.6v-1.8
						c0.1,0.3,0.2,0.6,0.3,0.9C27,37.8,27,38.3,27,38.9L27,38.9L27,38.9z M43,39.4c0.4-0.7,0.7-1.3,1-2.1c-0.1-1.2-0.6-2.4-1.4-3.3
						c-1.8-1.9-5.3-2.8-7.2-1.9c-1,0.5-1.7,1.5-1.9,2.7c0,0.5,0,1,0,1.6c0.3-0.7,0.8-1.3,1.5-1.7c1.8-0.9,5-0.1,6.7,1.8
						C42.3,37.3,42.8,38.3,43,39.4L43,39.4L43,39.4z M42,43.1c0-0.6-0.1-1.2-0.2-1.8c0.5-0.7,0.9-1.3,1.2-2c0.1,0.7,0.2,1.3,0.1,2
						C42.8,42,42.4,42.6,42,43.1L42,43.1L42,43.1z M40.5,46c0.5-0.4,0.9-0.9,1.3-1.4c0.1-0.5,0.2-1,0.2-1.6
						c-0.4,0.6-0.9,1.1-1.4,1.7C40.6,45.2,40.6,45.6,40.5,46L40.5,46z M40.5,46c-0.1,0.4-0.2,0.8-0.3,1.1c-1.2,1-2.8,1.6-3.7,2.3
						c-0.6,0.4-1,0.8-1,1.5c0-0.8,0.5-1.3,1.2-1.9C37.6,48.2,39.2,47.2,40.5,46L40.5,46L40.5,46z M40.5,56c-0.1-0.4-0.2-0.8-0.3-1.1
						c-1.2-1-2.8-1.6-3.7-2.3c-0.6-0.4-1-0.8-1-1.5c0,0.8,0.5,1.3,1.2,1.9C37.6,53.8,39.2,54.8,40.5,56L40.5,56L40.5,56z M40.5,56
						c0.5,0.4,0.9,0.9,1.3,1.4c0.1,0.5,0.2,1,0.2,1.6c-0.4-0.6-0.9-1.1-1.4-1.7C40.6,56.8,40.6,56.4,40.5,56L40.5,56L40.5,56z
						 M42,58.9c0,0.6-0.1,1.2-0.2,1.8c0.5,0.7,0.9,1.3,1.2,2c0.1-0.7,0.2-1.3,0.1-2C42.8,60,42.4,59.5,42,58.9L42,58.9L42,58.9z
						 M43,62.6c0.4,0.7,0.7,1.3,1,2.1c-0.1,1.2-0.6,2.4-1.4,3.3c-1.8,1.9-5.3,2.8-7.2,1.9c-1-0.5-1.7-1.5-1.9-2.7c0-0.5,0-1.1,0-1.6
						c0.3,0.7,0.8,1.3,1.5,1.7c1.8,0.9,5,0.1,6.7-1.8C42.3,64.7,42.8,63.7,43,62.6L43,62.6L43,62.6z M33.1,63.2c0,0.5,0,1.1,0,1.6
						c0.1,0.3,0.2,0.6,0.3,0.8v-1.8C33.3,63.6,33.2,63.4,33.1,63.2L33.1,63.2L33.1,63.2z M32.8,60.7c0.1,0.2,0.2,0.4,0.3,0.7
						c0,0.6,0,1.2,0,1.8c-0.1-0.3-0.2-0.6-0.3-0.9C32.8,61.8,32.8,61.2,32.8,60.7C32.8,60.7,32.8,60.7,32.8,60.7z M32.4,53.9
						c0.2,0.8,0.2,1.6,0.2,2.5c0,0.8-0.1,1.6-0.1,2.5c0,0.3,0,0.6,0,1c0.1,0.3,0.2,0.6,0.3,0.9C32.8,58.2,33,55.6,32.4,53.9
						L32.4,53.9L32.4,53.9z M30.1,52.2c1.1,0,2,0.7,2.3,1.7c-0.5-1.3-1.9-2-3.2-1.5c-0.7,0.2-1.2,0.8-1.5,1.5
						C28,52.9,29,52.2,30.1,52.2L30.1,52.2z M27.7,53.9c-0.6,1.6-0.4,4.3-0.4,6.8c0.1-0.3,0.2-0.6,0.3-0.9c0-0.3,0-0.7,0-1
						c0-0.8,0-1.6-0.1-2.5C27.5,55.6,27.6,54.7,27.7,53.9L27.7,53.9L27.7,53.9z M27.3,60.7c0,0.5,0,1.1,0,1.6
						c-0.1,0.3-0.2,0.6-0.3,0.9c0-0.6,0-1.2,0-1.8C27.1,61.1,27.2,60.9,27.3,60.7C27.3,60.7,27.3,60.7,27.3,60.7z M27,63.2
						c-0.1,0.2-0.2,0.4-0.3,0.6v1.8c0.1-0.3,0.2-0.6,0.3-0.8C27,64.2,27,63.7,27,63.2L27,63.2L27,63.2z M17.1,62.6
						c0.2,1.1,0.7,2.1,1.4,2.9c1.7,1.9,5,2.7,6.7,1.8c0.7-0.4,1.2-1,1.5-1.7c0,0.6,0,1.1,0,1.6c-0.2,1.1-0.9,2.1-1.9,2.7
						c-1.9,0.9-5.4,0-7.2-1.9c-0.8-0.9-1.3-2.1-1.4-3.3C16.4,64,16.7,63.3,17.1,62.6L17.1,62.6L17.1,62.6z M18.1,58.9
						c-0.4,0.5-0.8,1.1-1.1,1.7c-0.1,0.7,0,1.3,0.1,2c0.4-0.7,0.8-1.3,1.2-2C18.2,60.1,18.1,59.5,18.1,58.9L18.1,58.9L18.1,58.9z
						 M19.6,56c-0.1,0.4-0.1,0.8-0.1,1.3c-0.5,0.5-1,1.1-1.4,1.7c0-0.5,0.1-1,0.2-1.6C18.7,56.8,19.1,56.4,19.6,56L19.6,56L19.6,56z
						 M19.6,56c0.1-0.4,0.2-0.8,0.3-1.1c1.2-1,2.8-1.6,3.7-2.3c0.6-0.4,1-0.8,1-1.5c0,0.8-0.5,1.3-1.2,1.9
						C22.5,53.8,20.9,54.8,19.6,56L19.6,56L19.6,56z M19.6,46.1c0.1,0.4,0.2,0.8,0.3,1.1c1.2,1,2.8,1.6,3.7,2.3c0.6,0.4,1,0.8,1,1.5
						c0-0.8-0.5-1.3-1.2-1.9C22.5,48.2,20.9,47.3,19.6,46.1L19.6,46.1L19.6,46.1z M19.6,46.1c-0.5-0.4-0.9-0.9-1.3-1.4
						c-0.1-0.5-0.2-1-0.2-1.6c0.4,0.6,0.9,1.1,1.4,1.7C19.5,45.2,19.6,45.6,19.6,46.1L19.6,46.1L19.6,46.1z M18.1,43.1
						c0-0.6,0.1-1.2,0.2-1.8c-0.5-0.7-0.9-1.3-1.2-2C17,40,17,40.7,17,41.4C17.3,42,17.7,42.6,18.1,43.1L18.1,43.1L18.1,43.1z
						 M17.1,39.4c0.2-1.1,0.7-2.1,1.4-2.9c1.7-2,5-2.7,6.7-1.8c0.7,0.4,1.2,1,1.5,1.7c0-0.6,0-1.1,0-1.6c-0.2-1.1-0.9-2.1-1.9-2.7
						c-1.9-0.9-5.4,0-7.2,1.9c-0.8,0.9-1.3,2.1-1.4,3.3C16.4,38,16.7,38.7,17.1,39.4L17.1,39.4L17.1,39.4z"/>
					<path id="_패스_3556" class="st5" d="M26.7,38.2c0,0.7,0,1.3,0,2c0.1,0.1,0.2,0.3,0.3,0.4c0-0.6,0-1.2,0-1.8
						C26.9,38.6,26.8,38.4,26.7,38.2L26.7,38.2z M27.7,48.1c-0.8-1.7-0.8-4.6-0.7-7.4c0.1,0.2,0.2,0.4,0.3,0.7
						C27.3,43.8,27.1,46.5,27.7,48.1L27.7,48.1L27.7,48.1z M32.4,48.1c0.8-1.7,0.8-4.6,0.7-7.4c-0.1,0.2-0.2,0.4-0.3,0.7
						C32.8,43.8,33,46.5,32.4,48.1C32.4,48.1,32.4,48.1,32.4,48.1z M33.4,38.2c0,0.7,0,1.3,0,2c-0.1,0.1-0.2,0.3-0.3,0.4
						c0-0.6,0-1.2,0-1.8C33.2,38.6,33.3,38.4,33.4,38.2L33.4,38.2z M41.8,41.4c0.5-0.7,0.9-1.3,1.2-2c-0.2-1.1-0.7-2.1-1.4-2.9
						c-1.7-2-5-2.7-6.7-1.8c-0.7,0.4-1.2,1-1.5,1.7v1.8c0.2-0.4,0.6-0.8,1-1c1.6-0.9,4.6-0.2,6.2,1.7C41.2,39.6,41.6,40.5,41.8,41.4
						L41.8,41.4L41.8,41.4z M40.6,44.8c0-0.5-0.1-1-0.2-1.5c0.5-0.7,1-1.3,1.4-2c0.1,0.6,0.2,1.2,0.2,1.8
						C41.6,43.7,41.1,44.2,40.6,44.8C40.6,44.8,40.6,44.8,40.6,44.8z M40.6,44.8c-1.4,1.5-2.8,2.8-3.8,3.8c-0.7,0.6-1.2,1.5-1.3,2.4
						c0-0.8,0.5-1.3,1.2-1.9c0.9-0.9,2.5-1.8,3.8-3C40.6,45.6,40.6,45.2,40.6,44.8L40.6,44.8z M40.6,57.2c-1.4-1.5-2.8-2.8-3.8-3.8
						c-0.7-0.6-1.2-1.5-1.3-2.4c0,0.8,0.5,1.3,1.2,1.9c0.9,0.9,2.5,1.8,3.8,3C40.6,56.4,40.6,56.8,40.6,57.2L40.6,57.2L40.6,57.2z
						 M40.6,57.2c0,0.5-0.1,1-0.2,1.5c0.5,0.7,1,1.3,1.4,2c0.1-0.6,0.2-1.2,0.2-1.8C41.6,58.3,41.1,57.8,40.6,57.2
						C40.6,57.2,40.6,57.2,40.6,57.2z M41.8,60.7c0.5,0.7,0.9,1.3,1.2,2c-0.2,1.1-0.7,2.1-1.4,2.9c-1.7,1.9-5,2.7-6.7,1.8
						c-0.7-0.4-1.2-1-1.5-1.7v-1.8c0.2,0.4,0.6,0.8,1,1c1.6,0.9,4.6,0.2,6.2-1.7C41.2,62.4,41.6,61.5,41.8,60.7L41.8,60.7L41.8,60.7
						z M33.4,63.8c0-0.7,0-1.3,0-2c-0.1-0.1-0.2-0.3-0.3-0.4c0,0.6,0,1.2,0,1.8C33.2,63.4,33.3,63.6,33.4,63.8L33.4,63.8z
						 M32.4,53.9c0.8,1.7,0.8,4.6,0.7,7.4c-0.1-0.2-0.2-0.4-0.3-0.7C32.8,58.2,33,55.6,32.4,53.9C32.4,53.9,32.4,53.9,32.4,53.9z
						 M32.4,53.9c-0.2-1.1-1.2-1.9-2.3-1.8c-1.1-0.1-2.1,0.7-2.3,1.8c0.4-1.3,1.8-2,3.1-1.6C31.6,52.5,32.2,53.1,32.4,53.9
						L32.4,53.9z M27.7,53.9c-0.6,1.6-0.4,4.3-0.4,6.8c-0.1,0.2-0.2,0.4-0.3,0.7C27,58.6,26.9,55.6,27.7,53.9L27.7,53.9L27.7,53.9z
						 M26.7,63.8c0.1-0.2,0.2-0.4,0.3-0.6c0-0.6,0-1.2,0-1.8c-0.1,0.1-0.2,0.3-0.3,0.4V63.8L26.7,63.8z M18.4,60.7
						c0.2,0.9,0.6,1.7,1.2,2.5c1.6,1.9,4.5,2.6,6.2,1.7c0.4-0.2,0.8-0.6,1-1v1.8c-0.3,0.7-0.8,1.3-1.5,1.7c-1.8,0.9-5,0.1-6.7-1.8
						c-0.7-0.8-1.2-1.8-1.4-2.9C17.5,62,17.9,61.3,18.4,60.7C18.4,60.7,18.4,60.7,18.4,60.7z M19.6,57.2c-0.5,0.5-1,1.1-1.4,1.7
						c0,0.6,0.1,1.2,0.2,1.8c0.4-0.7,0.9-1.3,1.4-2C19.6,58.2,19.6,57.7,19.6,57.2L19.6,57.2L19.6,57.2z M19.6,57.2
						c0-0.4,0-0.8,0.1-1.3c1.3-1.2,2.9-2.2,3.8-3c0.7-0.7,1.2-1.1,1.2-1.9c-0.1,0.9-0.6,1.8-1.3,2.4C22.4,54.4,20.9,55.8,19.6,57.2
						L19.6,57.2L19.6,57.2z M19.6,44.8c1.4,1.5,2.8,2.8,3.8,3.8c0.7,0.6,1.2,1.5,1.3,2.4c0-0.8-0.5-1.3-1.2-1.9
						c-0.9-0.9-2.5-1.8-3.8-3C19.5,45.6,19.5,45.2,19.6,44.8L19.6,44.8L19.6,44.8z M19.6,44.8c0-0.5,0.1-1,0.2-1.5
						c-0.5-0.7-1-1.3-1.4-2c-0.1,0.6-0.2,1.2-0.2,1.8C18.6,43.7,19.1,44.2,19.6,44.8L19.6,44.8L19.6,44.8z M18.4,41.4
						c-0.5-0.7-0.9-1.3-1.2-2c0.2-1.1,0.7-2.1,1.4-2.9c1.7-2,5-2.7,6.7-1.8c0.7,0.4,1.2,1,1.5,1.7v1.8c-0.2-0.4-0.6-0.8-1-1
						c-1.6-0.9-4.6-0.2-6.2,1.7C19,39.6,18.6,40.5,18.4,41.4L18.4,41.4L18.4,41.4z M32.4,48.1c-0.4,1.3-1.8,2-3.1,1.6
						c-0.8-0.2-1.4-0.8-1.6-1.6c0.2,1.1,1.2,1.9,2.3,1.8C31.2,50,32.2,49.2,32.4,48.1L32.4,48.1z"/>
					<path id="_패스_3557" class="st6" d="M30.1,50c1.2,0.1,2.2-0.7,2.3-1.9c0,0,0,0,0,0c0.9-1.5,0.9-4,1-5.6c0-0.7,0-1.5,0-2.2
						c0.2-0.2,0.3-0.4,0.6-0.5c1.5-1,4.1-0.3,5.5,1.5c0.4,0.6,0.8,1.3,0.9,2c-1.3,1.8-2.7,3.5-3.6,4.8c-1.3,1.8-1.3,2.2-1.3,2.9
						s0,1.1,1.3,2.9c0.9,1.3,2.2,3,3.6,4.8c-0.2,0.7-0.5,1.4-0.9,2c-1.4,1.8-4,2.5-5.5,1.5c-0.2-0.1-0.4-0.3-0.6-0.5
						c0-0.7,0-1.5,0-2.2c0-1.6-0.1-4.1-1-5.6c-0.1-1.2-1.1-2-2.3-2c0,0,0,0-0.1,0c-1.2-0.1-2.2,0.7-2.3,1.9c0,0,0,0,0,0
						c-0.9,1.5-0.9,4-1,5.6c0,0.7,0,1.5,0,2.2c-0.2,0.2-0.3,0.4-0.6,0.5c-1.5,1-4.1,0.3-5.5-1.5c-0.4-0.6-0.8-1.3-0.9-2
						c1.3-1.8,2.7-3.5,3.6-4.8c1.3-1.8,1.3-2.2,1.3-2.9s0-1.1-1.3-2.9c-0.9-1.3-2.2-3-3.6-4.8c0.2-0.7,0.5-1.4,0.9-2
						c1.4-1.8,4-2.5,5.5-1.5c0.2,0.1,0.4,0.3,0.6,0.5c0,0.7,0,1.5,0,2.2c0,1.6,0.1,4.1,1,5.6C27.8,49.2,28.8,50.1,30.1,50
						C30,50,30,50,30.1,50L30.1,50z"/>
					<path id="_패스_3558" class="st7" d="M35.5,51c0.1,0.9,0.6,1.8,1.3,2.4c0.9,1,2.4,2.4,3.8,3.8c0,0.5-0.1,1-0.2,1.5
						c-1.3-1.8-2.7-3.5-3.6-4.8C35.5,52.1,35.5,51.7,35.5,51L35.5,51L35.5,51z M35.5,51c0.1-0.9,0.6-1.8,1.3-2.4
						c0.9-1,2.4-2.4,3.8-3.8c0-0.5-0.1-1-0.2-1.5c-1.3,1.8-2.7,3.5-3.6,4.8C35.5,49.9,35.5,50.3,35.5,51L35.5,51L35.5,51z M24.6,51
						c-0.1,0.9-0.6,1.8-1.3,2.4c-0.9,1-2.4,2.4-3.8,3.8c0,0.5,0.1,1,0.2,1.5c1.3-1.8,2.7-3.5,3.6-4.8C24.6,52.1,24.7,51.7,24.6,51
						L24.6,51L24.6,51z M24.6,51c-0.1-0.9-0.6-1.8-1.3-2.4c-0.9-1-2.4-2.4-3.8-3.8c0-0.5,0.1-1,0.2-1.5c1.3,1.8,2.7,3.5,3.6,4.8
						C24.6,49.9,24.7,50.3,24.6,51L24.6,51L24.6,51z M33.1,61.3c0.1,0.1,0.2,0.3,0.3,0.4c0-0.7,0-1.5,0-2.2c0-1.6-0.1-4.1-1-5.6
						C33.2,55.6,33.2,58.5,33.1,61.3L33.1,61.3L33.1,61.3z M33.4,63.8c0-0.7,0-1.3,0-2c0.2,0.2,0.3,0.4,0.6,0.5
						c1.5,1,4.1,0.3,5.5-1.5c0.4-0.6,0.8-1.3,0.9-2c0.5,0.7,1,1.3,1.4,2c-0.2,0.9-0.6,1.7-1.2,2.5C39,65,36,65.7,34.4,64.8
						C34,64.5,33.7,64.2,33.4,63.8L33.4,63.8L33.4,63.8z M27,61.3c-0.1,0.1-0.2,0.3-0.3,0.4c0-0.7,0-1.5,0-2.2c0-1.6,0.1-4.1,1-5.6
						C26.9,55.6,27,58.5,27,61.3L27,61.3L27,61.3z M26.7,63.8c0-0.7,0-1.3,0-2c-0.2,0.2-0.3,0.4-0.6,0.5c-1.5,1-4.1,0.3-5.5-1.5
						c-0.4-0.6-0.8-1.3-0.9-2c-0.5,0.7-1,1.3-1.4,2c0.2,0.9,0.6,1.7,1.2,2.5c1.6,1.9,4.5,2.6,6.2,1.7C26.1,64.5,26.5,64.2,26.7,63.8
						L26.7,63.8L26.7,63.8z M27,40.7c-0.1-0.1-0.2-0.3-0.3-0.4c0,0.7,0,1.5,0,2.2c0,1.6,0.1,4.1,1,5.6C26.9,46.4,27,43.4,27,40.7
						L27,40.7L27,40.7z M26.7,38.2c-0.2-0.4-0.6-0.8-1-1c-1.6-0.9-4.6-0.2-6.2,1.7c-0.6,0.7-1,1.6-1.2,2.5c0.4,0.7,0.9,1.3,1.4,2
						c0.2-0.7,0.5-1.4,0.9-2c1.4-1.8,4-2.5,5.5-1.5c0.2,0.1,0.4,0.3,0.6,0.5C26.7,39.6,26.7,38.9,26.7,38.2L26.7,38.2L26.7,38.2z
						 M33.1,40.7c0.1-0.1,0.2-0.3,0.3-0.4c0,0.7,0,1.5,0,2.2c0,1.6-0.1,4.1-1,5.6C33.2,46.4,33.2,43.4,33.1,40.7L33.1,40.7
						L33.1,40.7z M33.4,38.2c0.2-0.4,0.6-0.8,1-1c1.6-0.9,4.6-0.2,6.2,1.7c0.6,0.7,1,1.6,1.2,2.5c-0.4,0.7-0.9,1.3-1.4,2
						c-0.2-0.7-0.5-1.4-0.9-2c-1.4-1.8-4-2.5-5.5-1.5c-0.2,0.1-0.4,0.3-0.6,0.5C33.4,39.6,33.4,38.9,33.4,38.2L33.4,38.2L33.4,38.2z
						 M27.7,48.1c0.2,1.1,1.2,1.9,2.3,1.8c1.1,0.1,2.1-0.7,2.3-1.8c-0.1,1.2-1.1,2-2.3,2c0,0,0,0-0.1,0
						C28.9,50.2,27.9,49.3,27.7,48.1C27.7,48.1,27.7,48.1,27.7,48.1L27.7,48.1L27.7,48.1z M27.7,53.9c0.2-1.1,1.2-1.9,2.3-1.8
						c1.1-0.1,2.1,0.7,2.3,1.8c-0.1-1.2-1.1-2-2.3-2c0,0,0,0-0.1,0C28.9,51.8,27.9,52.7,27.7,53.9C27.7,53.9,27.7,53.9,27.7,53.9
						L27.7,53.9z"/>
				</g>
			</g>
		</g>
	</g>
</g>
</svg>
