<?xml version="1.0" encoding="utf-8"?>
<!-- Generator: Adobe Illustrator 27.4.0, SVG Export Plug-In . SVG Version: 6.00 Build 0)  -->
<svg version="1.1" id="_레이어_2" xmlns="http://www.w3.org/2000/svg" xmlns:xlink="http://www.w3.org/1999/xlink" x="0px"
	 y="0px" viewBox="0 0 176.4 100" style="enable-background:new 0 0 176.4 100;" xml:space="preserve">
<style type="text/css">
	.st0{fill:none;}
	.st1{fill:#EF2D38;}
	.st2{fill:#868377;}
	.st3{fill:#831418;}
</style>
<g id="_레이어_1-2">
	<g>
		<rect x="-61.2" y="0.1" class="st0" width="308" height="100"/>
		<g id="_국민건강보험">
			<path id="_패스_3559" class="st1" d="M46.7,40.6c0-0.6-0.5-1-1-1l0,0c-0.6,0-1,0.5-1,1s0.5,1,1,1l0,0
				C46.2,41.6,46.7,41.1,46.7,40.6L46.7,40.6"/>
			<path id="_패스_3560" class="st1" d="M42.7,39.5c0-0.8-0.4-1.6-1.8-1.6c-1.2,0-2.4,0.6-3.2,1.6l0.8-3.8l0,0
				c0-0.1,0.1-0.3,0.1-0.4c0-0.3-0.1-0.5-0.7-0.5c-0.7,0-0.9,0.3-1.1,0.8L35,44.7h1.7l0.5-2.7c0-0.1,0.1-0.2,0.1-0.4
				c0.1-0.5,1.6-2.6,2.9-2.6c0,0,0,0,0,0c0.4,0,0.7,0.3,0.8,0.6c0,0,0,0.1,0,0.2c0,0.2,0,0.3-0.1,0.5l-0.9,4.4h1.7l0.9-4.5
				C42.7,39.9,42.7,39.7,42.7,39.5"/>
			<path id="_패스_3561" class="st1" d="M58.1,37.9L58.1,37.9c-0.7,0-0.9,0.2-1,0.5L54.9,43l-0.4-4.7c0-0.4-0.2-0.4-0.3-0.4h-0.4
				c-0.4,0-0.8,0.2-0.9,0.5L50.7,43l-0.4-4.4c-0.1-0.6-0.2-0.7-0.8-0.7c-0.7,0-0.8,0.2-0.8,0.7c0,0.1,0,0.1,0,0.2l0.6,6h1.7l2.1-4.3
				l0.4,4.3h1.7l3.2-6.5l0,0l0,0c0,0,0-0.1,0-0.1C58.5,38,58.5,37.9,58.1,37.9"/>
			<path id="_패스_3562" class="st1" d="M60.7,40.8c0,0,0.3-1.9,2-1.9h0.1c0.3,0,0.6,0.1,0.8,0.3c0.1,0.1,0.2,0.3,0.2,0.5v0.1
				c0,0.5-0.3,1.2-2.4,1.2h-0.1C61.1,40.9,61,40.9,60.7,40.8L60.7,40.8L60.7,40.8L60.7,40.8z M60.5,41.7L60.5,41.7
				c0.1,0,0.4,0,0.9,0c0.9,0.1,1.9-0.1,2.7-0.5c0.6-0.4,1-1,1.1-1.8c0,0,0-0.1,0-0.2c-0.1-0.7-0.7-1.4-2.4-1.4
				c-2-0.1-3.7,1.4-3.9,3.4c0,0.3-0.1,0.6-0.1,0.8c0,1.7,0.9,2.6,2.7,2.7c0.1,0,0.2,0,0.3,0c0.3,0,0.6,0,0.8-0.1h0.1
				c0.3-0.1,0.5-0.1,0.8-0.2c0.3-0.2,0.6-0.3,0.9-0.6l-0.7-0.8c-0.3,0.2-0.6,0.4-0.9,0.5c-0.2,0-0.5,0.1-0.7,0.1c-0.1,0-0.2,0-0.3,0
				c-0.7,0-1.3-0.6-1.3-1.3c0-0.1,0-0.1,0-0.2C60.5,42,60.5,41.9,60.5,41.7L60.5,41.7L60.5,41.7z"/>
			<path id="_패스_3563" class="st1" d="M66.2,43.3L66.2,43.3c0,0.1,0,0.2,0,0.3c0,0.5,0.2,0.9,0.7,1.1c0.2,0.1,0.5,0.1,0.8,0.1
				c0.5,0,1-0.1,1.4-0.4l-0.2-0.9c-0.2,0.1-0.4,0.2-0.7,0.2c-0.1,0-0.2,0-0.3-0.1c-0.1-0.1-0.1-0.2-0.1-0.3c0-0.1,0-0.2,0-0.2
				l1.4-7.4l0,0c0,0,0-0.1,0-0.1c0-0.1,0-0.3,0.1-0.4c0-0.3-0.1-0.5-0.6-0.5c-0.6,0-0.8,0.2-0.9,0.6L66.2,43.3L66.2,43.3z"/>
			<path id="_패스_3564" class="st1" d="M70.2,43.3L70.2,43.3c0,0.2,0,0.2,0,0.3c0,0.5,0.2,0.9,0.7,1.1c0.2,0.1,0.5,0.1,0.8,0.1
				c0.5,0,1-0.1,1.4-0.4l-0.2-0.9c-0.2,0.1-0.4,0.2-0.7,0.2c-0.1,0-0.2,0-0.3-0.1c-0.1-0.1-0.1-0.2-0.1-0.3c0-0.1,0-0.2,0-0.2
				l1.4-7.4c0,0,0-0.1,0-0.1c0-0.1,0-0.3,0.1-0.4c0-0.3-0.1-0.5-0.6-0.5c-0.6,0-0.8,0.2-0.9,0.6L70.2,43.3L70.2,43.3z"/>
			<path id="_패스_3565" class="st2" d="M35,66.4h0.6l1.4,2.8l0,0v-2.8h0.5v3.4h-0.6L35.5,67l0,0v2.8H35V66.4L35,66.4z"/>
			<path id="_패스_3566" class="st2" d="M40,68.6c-0.1,0-0.2,0-0.3,0c-0.2,0-0.8,0-0.8,0.5c0,0.2,0.2,0.4,0.4,0.4
				c0.3,0,0.6-0.2,0.7-0.6c0,0,0-0.1,0-0.1L40,68.6L40,68.6z M38.7,67.5c0.2-0.2,0.5-0.2,0.8-0.2c0.7,0,1,0.3,1,1v1
				c0,0.2,0,0.3,0,0.5h-0.4v-0.3h0c-0.2,0.2-0.4,0.4-0.7,0.4c-0.5,0-0.9-0.2-0.9-0.8c0-0.6,0.7-0.8,1.1-0.8c0.2,0,0.3,0,0.5,0
				c0-0.4-0.2-0.7-0.6-0.7c-0.2,0-0.5,0.1-0.7,0.3L38.7,67.5L38.7,67.5z"/>
			<path id="_패스_3567" class="st2" d="M42.7,67.7h-0.6v1.4c0,0.3,0.2,0.4,0.4,0.4c0.1,0,0.2,0,0.3-0.1v0.4
				c-0.1,0-0.2,0.1-0.4,0.1c-0.4,0.1-0.7-0.2-0.7-0.6c0-0.1,0-0.1,0-0.2v-1.5h-0.5v-0.4h0.5v-0.6l0.4-0.2v0.7h0.6L42.7,67.7
				L42.7,67.7z"/>
			<path id="_패스_3568" class="st2" d="M43.6,67.3h0.4v2.5h-0.4V67.3z M44.1,66.8h-0.5v-0.5h0.5V66.8z"/>
			<path id="_패스_3569" class="st2" d="M46.2,69.5c0.5,0,0.7-0.5,0.7-0.9c0.1-0.5-0.3-0.9-0.7-0.9l0,0c-0.5,0.1-0.8,0.5-0.8,0.9
				c0,0,0,0,0,0C45.5,69,45.7,69.5,46.2,69.5 M46.2,67.3c0.7,0,1.2,0.5,1.2,1.2c0,0,0,0.1,0,0.1c0,0.7-0.5,1.3-1.2,1.3
				c0,0,0,0-0.1,0c-0.7,0-1.2-0.6-1.2-1.3c0,0,0,0,0-0.1c-0.1-0.7,0.4-1.2,1.1-1.3C46.1,67.3,46.2,67.3,46.2,67.3"/>
			<path id="_패스_3570" class="st2" d="M48.3,67.3h0.4v0.4l0,0c0.2-0.3,0.4-0.5,0.8-0.5c0.6,0,0.9,0.4,0.9,1.1v1.5h-0.4v-1.3
				c0-0.6-0.1-0.9-0.5-0.9c-0.5,0-0.7,0.4-0.7,1v1.2h-0.4L48.3,67.3L48.3,67.3z"/>
			<path id="_패스_3571" class="st2" d="M52.8,68.6c-0.1,0-0.2,0-0.3,0c-0.2,0-0.8,0-0.8,0.5c0,0.2,0.2,0.4,0.4,0.4
				c0.3,0,0.6-0.2,0.7-0.6c0,0,0-0.1,0-0.1L52.8,68.6L52.8,68.6z M51.5,67.5c0.2-0.2,0.5-0.2,0.8-0.2c0.7,0,1,0.3,1,1v1
				c0,0.2,0,0.3,0,0.5h-0.4v-0.3l0,0c-0.2,0.2-0.4,0.4-0.7,0.4c-0.5,0-0.9-0.2-0.9-0.8c0-0.6,0.7-0.8,1.1-0.8c0.2,0,0.3,0,0.5,0
				c0-0.4-0.2-0.7-0.6-0.7c-0.2,0-0.5,0.1-0.7,0.3L51.5,67.5L51.5,67.5z"/>
			<path id="_패스_3572" class="st2" d="M54.3,66.1h0.4v3.7h-0.4V66.1z"/>
			<path id="_패스_3573" class="st2" d="M57.5,66.4H58v1.4h1.6v-1.4H60v3.4h-0.5v-1.6H58v1.6h-0.5V66.4z"/>
			<path id="_패스_3574" class="st2" d="M62.6,68.3c0-0.3-0.2-0.7-0.5-0.7c0,0,0,0-0.1,0c-0.4,0-0.6,0.4-0.6,0.7L62.6,68.3
				L62.6,68.3z M62.9,69.7c-0.2,0.1-0.5,0.2-0.8,0.2c-0.8,0-1.2-0.5-1.2-1.3c-0.1-0.6,0.4-1.2,1-1.3c0,0,0.1,0,0.1,0
				c0.8,0,1.1,0.6,1.1,1.4h-1.7c0,0.4,0.3,0.8,0.8,0.8c0,0,0,0,0,0c0.3,0,0.5-0.1,0.7-0.2C62.9,69.3,62.9,69.7,62.9,69.7z"/>
			<path id="_패스_3575" class="st2" d="M65.4,68.6c-0.1,0-0.2,0-0.3,0c-0.2,0-0.8,0-0.8,0.5c0,0.2,0.2,0.4,0.4,0.4
				c0.3,0,0.6-0.2,0.7-0.6c0,0,0-0.1,0-0.1L65.4,68.6L65.4,68.6z M64.1,67.5c0.2-0.2,0.5-0.2,0.8-0.2c0.7,0,1,0.3,1,1v1
				c0,0.2,0,0.3,0,0.5h-0.4v-0.3l0,0c-0.2,0.2-0.4,0.4-0.7,0.4c-0.5,0-0.9-0.2-0.9-0.8c0-0.6,0.6-0.8,1.1-0.8c0.2,0,0.3,0,0.5,0
				c0-0.4-0.2-0.7-0.6-0.7c-0.2,0-0.5,0.1-0.7,0.3L64.1,67.5L64.1,67.5z"/>
			<path id="_패스_3576" class="st2" d="M66.9,66.1h0.4v3.7h-0.4V66.1z"/>
			<path id="_패스_3577" class="st2" d="M69.7,67.7H69v1.4c0,0.3,0.2,0.4,0.4,0.4c0.1,0,0.2,0,0.3-0.1v0.4c-0.1,0-0.2,0.1-0.4,0.1
				c-0.4,0.1-0.7-0.2-0.7-0.6c0-0.1,0-0.1,0-0.2v-1.5h-0.5v-0.4h0.5v-0.6l0.4-0.2v0.7h0.6L69.7,67.7L69.7,67.7z"/>
			<path id="_패스_3578" class="st2" d="M70.5,66.1h0.4v1.5l0,0c0.2-0.3,0.4-0.4,0.8-0.4c0.6,0,0.9,0.4,0.9,1.1v1.5h-0.4v-1.3
				c0-0.6-0.1-0.9-0.5-0.9c-0.5,0-0.7,0.4-0.7,1v1.2h-0.4L70.5,66.1L70.5,66.1z"/>
			<path id="_패스_3579" class="st2" d="M75.2,66.4h0.5v3.4h-0.5V66.4z"/>
			<path id="_패스_3580" class="st2" d="M76.8,67.3h0.4v0.4l0,0c0.1-0.3,0.4-0.5,0.8-0.5c0.6,0,0.9,0.4,0.9,1.1v1.5h-0.4v-1.3
				c0-0.6-0.1-0.9-0.5-0.9c-0.5,0-0.7,0.4-0.7,1v1.2h-0.4L76.8,67.3L76.8,67.3z"/>
			<path id="_패스_3581" class="st2" d="M79.7,69.3c0.2,0.1,0.4,0.2,0.6,0.2c0.2,0,0.4-0.1,0.4-0.4c0-0.5-1-0.4-1-1.1
				c0-0.4,0.3-0.8,0.7-0.8c0,0,0.1,0,0.1,0c0.2,0,0.4,0,0.6,0.1l0,0.4c-0.1-0.1-0.3-0.1-0.5-0.1c-0.2,0-0.4,0.1-0.4,0.3
				c0,0.5,1,0.4,1,1.2c0,0.4-0.3,0.8-0.7,0.8c0,0-0.1,0-0.1,0c-0.2,0-0.4,0-0.6-0.1L79.7,69.3L79.7,69.3z"/>
			<path id="_패스_3582" class="st2" d="M84.1,69.8h-0.4v-0.4l0,0c-0.1,0.3-0.4,0.5-0.8,0.5c-0.6,0-0.9-0.4-0.9-1.1v-1.5h0.4v1.3
				c0,0.6,0.1,0.9,0.5,0.9c0.5,0,0.7-0.4,0.7-1v-1.2h0.4L84.1,69.8L84.1,69.8z"/>
			<path id="_패스_3583" class="st2" d="M85.1,67.3h0.4v0.4l0,0c0.1-0.2,0.4-0.4,0.6-0.4c0.1,0,0.2,0,0.3,0v0.4
				c-0.1,0-0.2-0.1-0.2,0c-0.4,0-0.6,0.4-0.6,1v1.1h-0.4L85.1,67.3L85.1,67.3z"/>
			<path id="_패스_3584" class="st2" d="M88.6,68.6c-0.1,0-0.2,0-0.3,0c-0.2,0-0.8,0-0.8,0.5c0,0.2,0.2,0.4,0.4,0.4
				c0.3,0,0.6-0.2,0.7-0.6c0,0,0-0.1,0-0.1L88.6,68.6L88.6,68.6z M87.3,67.5c0.2-0.2,0.5-0.2,0.8-0.2c0.7,0,1,0.3,1,1v1
				c0,0.2,0,0.3,0,0.5h-0.4v-0.3l0,0c-0.2,0.2-0.4,0.4-0.7,0.4c-0.5,0-0.9-0.2-0.9-0.8c0-0.6,0.6-0.8,1.1-0.8c0.2,0,0.3,0,0.5,0
				c0-0.4-0.1-0.7-0.6-0.7c-0.2,0-0.5,0.1-0.7,0.3L87.3,67.5L87.3,67.5z"/>
			<path id="_패스_3585" class="st2" d="M90.1,67.3h0.4v0.4l0,0c0.1-0.3,0.4-0.5,0.8-0.5c0.6,0,0.9,0.4,0.9,1.1v1.5h-0.4v-1.3
				c0-0.6-0.1-0.9-0.5-0.9c-0.5,0-0.7,0.4-0.7,1v1.2h-0.4L90.1,67.3L90.1,67.3z"/>
			<path id="_패스_3586" class="st2" d="M94.7,67.7c-0.1-0.1-0.3-0.1-0.5-0.1c-0.5,0-0.8,0.4-0.8,0.9v0c-0.1,0.5,0.3,0.9,0.7,0.9
				c0,0,0.1,0,0.1,0c0.2,0,0.3-0.1,0.5-0.1l0,0.4c-0.2,0.1-0.4,0.1-0.6,0.1c-0.7,0-1.2-0.6-1.2-1.3c0,0,0,0,0-0.1
				c-0.1-0.7,0.4-1.2,1.1-1.3c0,0,0.1,0,0.1,0c0.2,0,0.4,0,0.5,0.1L94.7,67.7L94.7,67.7z"/>
			<path id="_패스_3587" class="st2" d="M97.1,68.3c0-0.3-0.2-0.7-0.5-0.7c0,0,0,0-0.1,0c-0.4,0-0.6,0.4-0.6,0.7L97.1,68.3
				L97.1,68.3z M97.4,69.7c-0.2,0.1-0.5,0.2-0.8,0.2c-0.8,0-1.2-0.5-1.2-1.3c-0.1-0.6,0.4-1.2,1-1.3c0,0,0.1,0,0.1,0
				c0.8,0,1.1,0.6,1.1,1.4h-1.7c0,0.4,0.3,0.8,0.8,0.8c0,0,0,0,0,0c0.3,0,0.5-0.1,0.7-0.2C97.4,69.3,97.4,69.7,97.4,69.7z"/>
			<path id="_패스_3588" class="st2" d="M110.2,67.4l-0.9,2.5H109l-0.9-2.5h0.4l0.5,1.4c0.1,0.2,0.1,0.4,0.2,0.6l0,0
				c0-0.1,0.1-0.2,0.1-0.4l0.5-1.6H110.2L110.2,67.4z"/>
			<path id="_패스_3589" class="st2" d="M111.4,67.4h0.4v2.5h-0.4V67.4z M111.8,66.8h-0.5v-0.5h0.5V66.8z"/>
			<path id="_패스_3590" class="st2" d="M105.9,67.4h0.4v0.4l0,0c0.1-0.2,0.4-0.4,0.6-0.4c0.1,0,0.2,0,0.3,0v0.4
				c-0.1,0-0.2-0.1-0.2,0c-0.4,0-0.6,0.4-0.6,1v1.1h-0.4L105.9,67.4L105.9,67.4z"/>
			<path id="_패스_3591" class="st2" d="M104.4,68.3c0-0.3-0.2-0.7-0.5-0.7c0,0,0,0-0.1,0c-0.4,0-0.6,0.4-0.6,0.7L104.4,68.3
				L104.4,68.3z M104.7,69.7c-0.2,0.1-0.5,0.2-0.8,0.2c-0.8,0-1.2-0.5-1.2-1.3c-0.1-0.6,0.4-1.2,1-1.3c0,0,0.1,0,0.1,0
				c0.8,0,1.1,0.6,1.1,1.4h-1.7c0,0.4,0.3,0.8,0.8,0.8c0,0,0,0,0,0c0.3,0,0.5-0.1,0.7-0.2C104.7,69.3,104.7,69.7,104.7,69.7z"/>
			<path id="_패스_3592" class="st2" d="M99.9,69.3c0.3,0.1,0.5,0.2,0.8,0.2c0.3,0,0.7,0,0.7-0.6c0-0.6-1.6-0.6-1.6-1.5
				c0-0.6,0.4-1,1-1.1c0.1,0,0.1,0,0.2,0c0.2,0,0.5,0.1,0.7,0.1l-0.1,0.4c-0.2-0.1-0.4-0.2-0.6-0.2c-0.3,0-0.7,0.3-0.7,0.6
				c0,0.7,1.6,0.5,1.6,1.6c0,0.6-0.4,1.1-1,1.1c0,0-0.1,0-0.1,0c-0.3,0-0.6-0.1-0.9-0.2L99.9,69.3L99.9,69.3z"/>
			<path id="_패스_3593" class="st2" d="M114.5,67.7c-0.1-0.1-0.3-0.1-0.5-0.1c-0.5,0-0.8,0.4-0.8,0.9c0,0,0,0,0,0
				c-0.1,0.5,0.3,0.9,0.7,0.9c0,0,0.1,0,0.1,0c0.2,0,0.3-0.1,0.5-0.1l0,0.4c-0.2,0.1-0.4,0.1-0.6,0.1c-0.7,0-1.2-0.6-1.2-1.3
				c0,0,0,0,0-0.1c-0.1-0.7,0.4-1.2,1.1-1.3c0,0,0.1,0,0.1,0c0.2,0,0.4,0,0.5,0.1L114.5,67.7L114.5,67.7z"/>
			<path id="_패스_3594" class="st2" d="M116.9,68.3c0-0.3-0.2-0.7-0.5-0.7c0,0,0,0-0.1,0c-0.4,0-0.6,0.4-0.6,0.7L116.9,68.3
				L116.9,68.3z M117.1,69.7c-0.2,0.1-0.5,0.2-0.8,0.2c-0.8,0-1.2-0.5-1.2-1.3c-0.1-0.6,0.4-1.2,1-1.3c0,0,0.1,0,0.1,0
				c0.8,0,1.1,0.6,1.1,1.4h-1.7c0,0.4,0.3,0.8,0.8,0.8c0,0,0,0,0,0c0.3,0,0.5-0.1,0.7-0.2C117.1,69.3,117.1,69.7,117.1,69.7z"/>
			<path id="_패스_3595" class="st2" d="M57.2,54.3h-3.7v-5.2h3.7V54.3z M59.5,54.6v-6.9h-8.3v6.9c0,0.6,0.5,1.1,1.1,1.1h6.1
				C59,55.8,59.5,55.3,59.5,54.6 M64.1,47.4h-2.3v11.1h2.3C64.1,58.5,64.1,47.4,64.1,47.4z M59.2,61.6L59.2,61.6
				c-1.1,0-2.2,0-3.2-0.3c-0.6-0.2-0.9-0.5-0.9-0.9l0,0v-2.7h-2.3v2.7c0,0.7,0.3,1.4,0.8,1.8c0.8,0.6,4.1,0.8,5.5,0.8h0.1
				c1.7,0,3.4-0.2,5.1-0.6V61C62.6,61.4,60.9,61.5,59.2,61.6"/>
			<path id="_패스_3596" class="st2" d="M44.3,50.9c0,0.8-0.1,1.6-0.3,2.4h2.1c0.3-0.8,0.5-1.6,0.5-2.4v-2.1
				c0-0.6-0.5-1.1-1.1-1.1H35v1.4h9.3C44.3,49.1,44.3,50.9,44.3,50.9z M48,54.8v-1.4H33.5v1.4h6.3V57h-4.8v1.4h9.3v4.3h2.3v-4.7
				c0-0.6-0.5-1.1-1.1-1.1h-3.4v-2.2L48,54.8L48,54.8z"/>
			<path id="_패스_3597" class="st2" d="M104.2,55.5L104.2,55.5c-0.4,0-0.8-0.4-0.8-0.8v0v-2.6h6.4v2.6c0,0.4-0.4,0.8-0.8,0.8
				c-0.8,0.1-1.6,0.2-2.4,0.2S105,55.7,104.2,55.5 M107.7,60.5v-3.4h0.1c0.9-0.1,1.8-0.2,2.7-0.4c0,0,0.1,0,0.1,0
				c0.8-0.1,1.4-0.7,1.4-1.5v-7.5h-2.3v2.9h-6.4v-2.9h-2.3v7.5c0,0.8,0.5,1.4,1.3,1.5c1,0.2,2,0.4,3,0.4h0.1v3.4h-6.2v1.4h14.7v-1.4
				H107.7L107.7,60.5z M104.1,55.5L104.1,55.5C104.1,55.5,104.1,55.5,104.1,55.5C104.1,55.5,104.1,55.5,104.1,55.5"/>
			<path id="_패스_3598" class="st2" d="M75.3,61.6L75.3,61.6c-1.1,0-2.1,0-3.2-0.3c-0.6-0.2-0.9-0.5-0.9-0.9l0,0v-2.7h-2.3v2.7
				c0,0.7,0.3,1.4,0.9,1.8c0.8,0.6,4.1,0.8,5.5,0.8h0.1c1.7,0,3.4-0.2,5.1-0.6V61C78.7,61.4,77,61.6,75.3,61.6 M74.9,52.4h3.1v6.1
				h2.3V47.4h-2.3V51h-2.8c0-0.2,0-0.4,0-0.5v-0.1l0,0v-1.5c0-0.6-0.5-1.1-1.1-1.1h-6.6v1.4h5.4v1c0.1,1.3-0.5,2.6-1.4,3.5
				c-1.1,0.9-2.5,1.4-4,1.3v1.4c1.4,0,2.9-0.2,4.2-0.8C73.2,55.1,74.4,53.9,74.9,52.4"/>
			<path id="_패스_3599" class="st2" d="M120.1,54.7c-1.2,0-2.1-1-2.1-2.1c0,0,0,0,0-0.1c0-1.2,0.9-2.1,2-2.2c0,0,0,0,0.1,0
				c1.2,0,2.1,1,2.1,2.1c0,0,0,0,0,0C122.3,53.7,121.4,54.6,120.1,54.7C120.2,54.7,120.2,54.7,120.1,54.7 M126.2,47.4v4.2h-1.8
				c-0.2-0.7-0.6-1.2-1.1-1.7h1.4v-1.4h-3.4V47H119v1.5h-3.4v1.4h1.4c-0.8,0.6-1.2,1.6-1.2,2.6c0,2,1.8,3.7,4.4,3.7
				c2.4,0,4.1-1.4,4.4-3.1h1.7v3h2.3v-8.7L126.2,47.4L126.2,47.4z M119.6,60.6v-1.8h6.6v1.9c0,0.5-0.4,0.8-0.8,0.8h0
				c-0.8,0.1-1.5,0.2-2.3,0.2c-0.9,0-1.7,0-2.6-0.2C120,61.4,119.7,61.1,119.6,60.6L119.6,60.6 M117.3,61.1c0,0.8,0.6,1.4,1.3,1.5
				c1.4,0.3,2.9,0.5,4.4,0.5c1.3,0,2.6-0.1,3.9-0.4c0.1,0,0.1,0,0.2,0c0.8-0.1,1.4-0.7,1.4-1.5v-3.8h-11.2V61.1z"/>
			<path id="_패스_3600" class="st2" d="M90.6,62.1c-1.8,0-2.9-1-2.9-2.1s1.2-2.1,2.9-2.1s2.9,1,2.9,2.1S92.4,62.1,90.6,62.1
				 M90.6,56.3c-3.2,0-5.4,1.6-5.4,3.6s2.1,3.6,5.4,3.6s5.4-1.6,5.4-3.6S93.8,56.3,90.6,56.3 M95.8,50.2v-2.9h-2.3v8.7h2.3v-4.4h2.1
				v-1.4L95.8,50.2L95.8,50.2z M91.1,50.3v-0.1l0,0v-1.3c0-0.6-0.5-1.1-1.1-1.1h-6.6v1.4h5.4V50l0,0c0.1,1.3-0.5,2.5-1.4,3.4
				c-1.1,0.8-2.6,1.3-4,1.2V56h0.3c1.5,0,3-0.2,4.4-0.8C90,54.4,91.2,52.4,91.1,50.3"/>
			<path id="_패스_3601" class="st1" d="M146.2,41.7l0-1.6c-6.1,0-8.7-3.8-8.8-6.9c0-2.4,1.6-4.9,4.3-4.9c1.4,0,2.6,0.7,3.4,1.8
				c0.7-1.2,2.1-1.9,3.5-1.9c1.8,0,4.2,1.5,4.2,5C152.8,36.6,150.4,40.2,146.2,41.7 M145,20.4c-8.2,0.1-15,6.1-14.9,13.9
				c0.1,4.2,2.2,8,5.6,10.5l-0.9,4.5c17.4,5,25.5-7.6,25.5-15.2C160.1,26.3,153.4,20.3,145,20.4"/>
			<path id="_패스_3602" class="st3" d="M146.3,47.7l-0.1-6c-2.6,0.9-6,1.1-9.9-0.1l-0.6,3C138.7,46.9,142.5,48,146.3,47.7"/>
		</g>
	</g>
</g>
</svg>
