<?xml version="1.0" encoding="utf-8"?>
<!-- Generator: Adobe Illustrator 27.4.0, SVG Export Plug-In . SVG Version: 6.00 Build 0)  -->
<svg version="1.1" id="_레이어_2" xmlns="http://www.w3.org/2000/svg" xmlns:xlink="http://www.w3.org/1999/xlink" x="0px"
	 y="0px" viewBox="0 0 176.4 100" style="enable-background:new 0 0 176.4 100;" xml:space="preserve">
<style type="text/css">
	.st0{fill:none;}
	.st1{fill:#575756;}
	.st2{fill:#003763;}
	.st3{fill:#E4022D;}
</style>
<g id="_레이어_1-2">
	<g>
		<rect x="-61.2" y="0.5" class="st0" width="308" height="100"/>
		<g>
			<g id="_그룹_4551">
				<path id="_패스_3603" class="st1" d="M92.3,56.3v1.8H77.4v-1.8h6.4V53h-5.2v-9.3h2v2.4h8.5v-2.4h2V53h-5.2v3.3H92.3L92.3,56.3
					L92.3,56.3z M89.1,51.3v-3.4h-8.5v3.4H89.1z"/>
				<path id="_패스_3604" class="st1" d="M101.8,52h-2v-6.7h-5.9v-1.8h8V52L101.8,52z M95,59V53h2v4.1h11.3V59L95,59L95,59z
					 M105.9,43.1h2v10.4h-2v-4.7h-2.7V47h2.7V43.1L105.9,43.1L105.9,43.1z"/>
				<path id="_패스_3605" class="st1" d="M125.5,51v1.7h-14.9V51h6.4v-1.4h-5.2v-6.3h2v1.5h8.5v-1.5h2v6.3H119V51H125.5L125.5,51
					L125.5,51z M124.3,54.1v5.2h-2v-3.5h-10.9v-1.7L124.3,54.1L124.3,54.1L124.3,54.1z M122.3,46.5h-8.5v1.5h8.5V46.5z"/>
				<path id="_패스_3606" class="st1" d="M127.5,45.9v-1.8h9.7v1.8h-4.1l4.5,10.6l-1.8,0.8l-3.4-8.3l-3.4,8.4l-1.8-0.8l4.5-10.7
					L127.5,45.9L127.5,45.9L127.5,45.9z M139.5,43.1h2v16.2h-2V43.1L139.5,43.1L139.5,43.1z"/>
				<path id="_패스_3607" class="st1" d="M143.9,53.3h14.9v1.8h-6.4v4.2h-2v-4.2h-6.4V53.3z M147.1,45.4h8.5v-2h2v7.8h-12.5v-7.8
					h2L147.1,45.4L147.1,45.4z M155.6,47.1h-8.5v2.2h8.5V47.1z"/>
			</g>
			<g id="_그룹_4552">
				<path id="_패스_3608" class="st2" d="M57.2,49.7c-3.2-2.2-7.6-1.4-9.9,1.8c-0.1,0.1-0.2,0.2-0.2,0.3c-2.1,3.3-6.5,4.3-9.8,2.2
					c-1.5-1-2.6-2.4-3-4.1l0,0c0,0,0,0,0-0.1s0-0.1,0-0.1c-0.3-0.9-0.4-1.9-0.4-2.8c0-6.4,6.5-13.5,15.9-13.5S65,40.7,66.4,44.8
					c0-0.1-0.1-0.1-0.1-0.2C62.7,34,51.2,28.3,40.6,32c-8.2,2.8-13.7,10.5-13.7,19.2c0,10,7.2,18.6,17.2,18.6
					c8,0,13.4-4.5,15.8-10.7C61.4,55.7,60.3,51.8,57.2,49.7L57.2,49.7z"/>
				<path id="_패스_3609" class="st3" d="M66.5,45.2c-1.2-4-6.7-11.8-16.7-11.8c-9.4,0-15.9,7.1-15.9,13.5c0,1,0.1,1.9,0.4,2.8
					c-0.1-0.5-0.2-1-0.2-1.5c0-6.6,6.6-11.2,13.5-11.2c9.2,0,16.7,7.5,16.7,16.7l0,0c0,7-4,13.4-10.2,16.5l0,0
					c8-2.9,13.4-10.5,13.4-19.1C67.4,49.1,67.1,47.1,66.5,45.2L66.5,45.2L66.5,45.2z"/>
			</g>
		</g>
	</g>
</g>
</svg>
