<?xml version="1.0" encoding="utf-8"?>
<!-- Generator: Adobe Illustrator 27.4.0, SVG Export Plug-In . SVG Version: 6.00 Build 0)  -->
<svg version="1.1" id="_레이어_2" xmlns="http://www.w3.org/2000/svg" xmlns:xlink="http://www.w3.org/1999/xlink" x="0px"
	 y="0px" viewBox="0 0 176.4 100" style="enable-background:new 0 0 176.4 100;" xml:space="preserve">
<style type="text/css">
	.st0{fill:none;}
	.st1{clip-path:url(#SVGID_00000072988157471637916460000012066664825700554162_);}
	.st2{fill:#009844;}
	.st3{fill:#8EC21F;}
</style>
<g id="_레이어_1-2">
	<g>
		<rect x="-61.2" y="-0.5" class="st0" width="308" height="100"/>
		<g>
			<defs>
				<rect id="SVGID_1_" x="52.8" y="31.5" width="80.1" height="36.1"/>
			</defs>
			<clipPath id="SVGID_00000051345991501992268810000003153814504297665688_">
				<use xlink:href="#SVGID_1_"  style="overflow:visible;"/>
			</clipPath>
			<g style="clip-path:url(#SVGID_00000051345991501992268810000003153814504297665688_);">
				<g id="_그룹_13216">
					<path id="_패스_43597" class="st2" d="M74.5,53.6c-0.9,0.9-1.4,2.2-1.4,3.5v0.4h2.1l0-0.4c0-0.8,0.3-1.5,0.8-2.1
						c0.5-0.5,1.1-0.7,1.8-0.7c0.6,0,1.3,0.2,1.7,0.7c0.4,0.4,0.7,1,0.7,1.6c0,0.5-0.1,1-0.4,1.5c-0.6,0.8-1.2,1.6-1.9,2.3l-5.7,6.1
						h10.3v-2.1h-5.5c0.9-0.9,2.6-2.8,2.6-2.8c0.8-0.8,1.5-1.7,2.1-2.7c0.4-0.7,0.6-1.5,0.6-2.3c0-2.4-1.9-4.3-4.3-4.3
						c-0.1,0-0.1,0-0.1,0C76.7,52.2,75.4,52.7,74.5,53.6"/>
					<path id="_패스_43598" class="st2" d="M52.8,38.8h3.4v14.3c0,1.5,0,3.1,0.1,4.6c0.1,1.2,0.5,2.4,1.2,3.4
						c0.7,1,1.7,1.8,2.9,2.3c1.2,0.6,2.5,0.9,3.9,0.9c1.1,0,2.2-0.2,3.3-0.7c1-0.5,1.9-1.2,2.6-2c0.7-0.9,1.3-2,1.5-3.1
						c0.3-1.8,0.4-3.6,0.4-5.4V39h3.4v14.1c0.1,2.5-0.2,5-0.9,7.5c-0.7,2-1.9,3.7-3.6,4.9c-1.9,1.4-4.2,2.2-6.5,2.1
						c-2.5,0.1-5-0.6-7.1-2c-1.9-1.2-3.3-3.1-3.9-5.3c-0.4-1.3-0.6-3.8-0.6-7.2L52.8,38.8L52.8,38.8z"/>
					<path id="_패스_43599" class="st3" d="M121.5,39.4c-0.5,0-1-0.3-1.1-0.9s0.4-1,0.9-1s1,0.3,1.1,0.9c0,0.3-0.1,0.5-0.2,0.7
						C122,39.3,121.8,39.4,121.5,39.4 M117.2,35.3c-0.3,1-1.4,1.6-2.4,1.3s-1.6-1.4-1.3-2.4c0.3-1,1.4-1.6,2.4-1.3
						c0.5,0.2,0.9,0.5,1.1,0.9C117.3,34.3,117.4,34.8,117.2,35.3 M109,42.4c-0.4,1.3-1.7,2-3,1.6s-2-1.7-1.6-3c0.4-1.3,1.7-2,3-1.6
						c0.6,0.2,1.1,0.6,1.4,1.2C109.1,41.1,109.2,41.8,109,42.4 M121.3,36.6c-0.4,0-0.7,0.2-1,0.4l-1.8-1.3l0-0.1
						c0.5-1.7-0.4-3.6-2.2-4.1c-1.7-0.5-3.6,0.4-4.1,2.2c-0.2,0.8-0.2,1.6,0.1,2.3l-3,2.5c-1.7-1.5-4.3-1.3-5.8,0.4
						c-1.5,1.7-1.3,4.3,0.4,5.8s4.3,1.3,5.8-0.4c1.2-1.4,1.4-3.3,0.4-4.9l2.9-2.5c1.3,1.3,3.4,1.3,4.6,0c0.1-0.1,0.2-0.2,0.3-0.3
						l1.7,1.3c-0.1,0.2-0.1,0.4-0.1,0.6c0.1,1,1,1.7,2,1.7c1-0.1,1.7-1,1.6-2C123.2,37.3,122.3,36.5,121.3,36.6L121.3,36.6"/>
					<path id="_패스_43600" class="st3" d="M88,53v10.9h3.5c1.5,0.1,3.1-0.1,4.6-0.6c0.9-0.4,1.8-1,2.3-1.9
						c1.3-1.9,1.1-4.4-0.4-6.1c-0.9-1-2.1-1.7-3.4-1.9c-1.7-0.3-3.4-0.4-5.1-0.3L88,53L88,53z M88,41.1v9.1h1.6
						c1.5,0.1,2.9-0.1,4.4-0.5c0.9-0.3,1.7-1,2.2-1.7c0.5-0.8,0.8-1.7,0.8-2.6c0.1-1.2-0.4-2.3-1.4-3.1c-0.9-0.7-2.4-1.1-4.3-1.1
						L88,41.1L88,41.1z M85.2,38.3h5.6c1.8-0.1,3.5,0.2,5.2,0.8c1.2,0.5,2.2,1.4,2.9,2.5c0.7,1.1,1.1,2.4,1.1,3.7
						c0,2.5-1.3,4.8-3.6,6c1.2,0.4,2.4,1,3.4,1.8c0.8,0.7,1.4,1.5,1.8,2.5c0.4,1,0.7,2,0.6,3.1c0,2.2-0.9,4.3-2.5,5.8
						c-1.8,1.6-4.2,2.5-6.7,2.4h-7.8L85.2,38.3L85.2,38.3z"/>
					<rect id="_사각형_4886" x="105.2" y="47.4" class="st3" width="2.8" height="19.3"/>
					<path id="_패스_43601" class="st3" d="M121.9,47.7c-4.7,0-8.5,3.8-8.5,8.5c0,0,0,0.1,0,0.1c0,4.7,3.7,8.4,8.4,8.5
						c0,0,0.1,0,0.1,0c1.5,0,3-0.4,4.3-1.1c1.3-0.7,2.4-1.8,3.1-3.1c0.8-1.3,1.1-2.8,1.1-4.4c0-1.5-0.4-3-1.1-4.3
						c-0.8-1.3-1.8-2.3-3.1-3.1C124.8,48.1,123.4,47.7,121.9,47.7 M121.8,45.3c2.9-0.1,5.8,1.1,7.9,3.1c2.1,2,3.2,4.8,3.2,7.7
						c0.1,2.9-1.1,5.7-3.2,7.7c-2,2.1-4.8,3.2-7.7,3.2c-2.9,0.1-5.7-1.1-7.8-3.1c-2.1-2-3.2-4.8-3.2-7.6c0-1.9,0.5-3.8,1.4-5.5
						C114.3,47.4,117.9,45.3,121.8,45.3"/>
					<path id="_패스_43602" class="st2" d="M74.5,53.6c-0.9,0.9-1.4,2.2-1.4,3.5v0.4h2.1l0-0.4c0-0.8,0.3-1.5,0.8-2.1
						c0.5-0.5,1.1-0.7,1.8-0.7c0.6,0,1.3,0.2,1.7,0.7c0.4,0.4,0.7,1,0.7,1.6c0,0.5-0.1,1-0.4,1.5c-0.6,0.8-1.2,1.6-1.9,2.3l-5.7,6.1
						h10.3v-2.1h-5.5c0.9-0.9,2.6-2.8,2.6-2.8c0.8-0.8,1.5-1.7,2.1-2.7c0.4-0.7,0.6-1.5,0.6-2.3c0-2.4-1.9-4.3-4.3-4.3
						c-0.1,0-0.1,0-0.1,0C76.7,52.2,75.4,52.7,74.5,53.6"/>
					<path id="_패스_43603" class="st2" d="M52.8,38.8h3.4v14.3c0,1.5,0,3.1,0.1,4.6c0.1,1.2,0.5,2.4,1.2,3.4
						c0.7,1,1.7,1.8,2.9,2.3c1.2,0.6,2.5,0.9,3.9,0.9c1.1,0,2.2-0.2,3.3-0.7c1-0.5,1.9-1.2,2.6-2c0.7-0.9,1.3-2,1.5-3.1
						c0.3-1.8,0.4-3.6,0.4-5.4V39h3.4v14.1c0.1,2.5-0.2,5-0.9,7.5c-0.7,2-1.9,3.7-3.6,4.9c-1.9,1.4-4.2,2.2-6.5,2.1
						c-2.5,0.1-5-0.6-7.1-2c-1.9-1.2-3.3-3.1-3.9-5.3c-0.4-1.3-0.6-3.8-0.6-7.2L52.8,38.8L52.8,38.8z"/>
					<path id="_패스_43604" class="st3" d="M121.5,39.4c-0.5,0-1-0.3-1.1-0.9s0.4-1,0.9-1s1,0.3,1.1,0.9c0,0.3-0.1,0.5-0.2,0.7
						C122,39.3,121.8,39.4,121.5,39.4 M117.2,35.3c-0.3,1-1.4,1.6-2.4,1.3s-1.6-1.4-1.3-2.4c0.3-1,1.4-1.6,2.4-1.3
						c0.5,0.2,0.9,0.5,1.1,0.9C117.3,34.3,117.4,34.8,117.2,35.3 M109,42.4c-0.4,1.3-1.7,2-3,1.6s-2-1.7-1.6-3c0.4-1.3,1.7-2,3-1.6
						c0.6,0.2,1.1,0.6,1.4,1.2C109.1,41.1,109.2,41.8,109,42.4 M121.3,36.6c-0.4,0-0.7,0.2-1,0.4l-1.8-1.3l0-0.1
						c0.5-1.7-0.4-3.6-2.2-4.1c-1.7-0.5-3.6,0.4-4.1,2.2c-0.2,0.8-0.2,1.6,0.1,2.3l-3,2.5c-1.7-1.5-4.3-1.3-5.8,0.4
						c-1.5,1.7-1.3,4.3,0.4,5.8s4.3,1.3,5.8-0.4c1.2-1.4,1.4-3.3,0.4-4.9l2.9-2.5c1.3,1.3,3.4,1.3,4.6,0c0.1-0.1,0.2-0.2,0.3-0.3
						l1.7,1.3c-0.1,0.2-0.1,0.4-0.1,0.6c0.1,1,1,1.7,2,1.7c1-0.1,1.7-1,1.6-2C123.2,37.3,122.3,36.5,121.3,36.6L121.3,36.6"/>
					<path id="_패스_43605" class="st3" d="M88,53v10.9h3.5c1.5,0.1,3.1-0.1,4.6-0.6c0.9-0.4,1.8-1,2.3-1.9
						c1.3-1.9,1.1-4.4-0.4-6.1c-0.9-1-2.1-1.7-3.4-1.9c-1.7-0.3-3.4-0.4-5.1-0.3L88,53L88,53z M88,41.1v9.1h1.6
						c1.5,0.1,2.9-0.1,4.4-0.5c0.9-0.3,1.7-1,2.2-1.7c0.5-0.8,0.8-1.7,0.8-2.6c0.1-1.2-0.4-2.3-1.4-3.1c-0.9-0.7-2.4-1.1-4.3-1.1
						L88,41.1L88,41.1z M85.2,38.3h5.6c1.8-0.1,3.5,0.2,5.2,0.8c1.2,0.5,2.2,1.4,2.9,2.5c0.7,1.1,1.1,2.4,1.1,3.7
						c0,2.5-1.3,4.8-3.6,6c1.2,0.4,2.4,1,3.4,1.8c0.8,0.7,1.4,1.5,1.8,2.5c0.4,1,0.7,2,0.6,3.1c0,2.2-0.9,4.3-2.5,5.8
						c-1.8,1.6-4.2,2.5-6.7,2.4h-7.8L85.2,38.3L85.2,38.3z"/>
					<rect id="_사각형_4887" x="105.2" y="47.4" class="st3" width="2.8" height="19.3"/>
					<path id="_패스_43606" class="st3" d="M121.9,47.7c-4.7,0-8.5,3.8-8.5,8.5c0,0,0,0.1,0,0.1c0,4.7,3.7,8.4,8.4,8.5
						c0,0,0.1,0,0.1,0c1.5,0,3-0.4,4.3-1.1c1.3-0.7,2.4-1.8,3.1-3.1c0.8-1.3,1.1-2.8,1.1-4.4c0-1.5-0.4-3-1.1-4.3
						c-0.8-1.3-1.8-2.3-3.1-3.1C124.8,48.1,123.4,47.7,121.9,47.7 M121.8,45.3c2.9-0.1,5.8,1.1,7.9,3.1c2.1,2,3.2,4.8,3.2,7.7
						c0.1,2.9-1.1,5.7-3.2,7.7c-2,2.1-4.8,3.2-7.7,3.2c-2.9,0.1-5.7-1.1-7.8-3.1c-2.1-2-3.2-4.8-3.2-7.6c0-1.9,0.5-3.8,1.4-5.5
						C114.3,47.4,117.9,45.3,121.8,45.3"/>
				</g>
			</g>
		</g>
	</g>
</g>
</svg>
