<?xml version="1.0" encoding="UTF-8"?>
<svg id="_레이어_2" data-name="레이어 2" xmlns="http://www.w3.org/2000/svg" viewBox="0 0 158.25 46.71">
  <defs>
    <style>
      .cls-1, .cls-2, .cls-3, .cls-4 {
        stroke-width: 0px;
      }

      .cls-2 {
        fill: #202020;
      }

      .cls-3 {
        fill: #0063f2;
      }

      .cls-4 {
        fill: #00cfff;
      }
    </style>
  </defs>
  <g id="_레이어_2-2" data-name=" 레이어 2">
    <g id="_레이어_2-2" data-name=" 레이어 2-2">
      <g>
        <g id="_레이어_2-2-2" data-name=" 레이어 2-2">
          <g id="_레이어_2-2-2" data-name=" 레이어 2-2-2">
            <g id="_그룹_6422" data-name=" 그룹 6422">
              <g id="_그룹_6421" data-name=" 그룹 6421">
                <path id="_패스_4944" data-name=" 패스 4944" class="cls-2" d="m66.08,7.36v13.77c0,4.64-3.53,7.75-8.79,7.73-5.27.01-8.76-3.09-8.76-7.73V7.36h4.39v13.42c.09,2.41,2.12,4.3,4.53,4.21,2.29-.08,4.12-1.92,4.21-4.21V7.36h4.42Z"/>
                <path id="_패스_4945" data-name=" 패스 4945" class="cls-2" d="m69.51,25.37l7.62-7c1.98-1.89,3.05-3.06,3.05-4.75-.15-1.83-1.76-3.19-3.6-3.04-1.71.14-3.03,1.56-3.05,3.27h-4.19c-.01-4.15,3.06-6.8,7.53-6.8s7.56,2.59,7.56,6.27c0,2.42-1.17,4.39-5.54,8.35l-3.22,3.13v.12h9.05v3.63h-15.18l-.03-3.19h0Z"/>
                <path id="_패스_4946" data-name=" 패스 4946" class="cls-2" d="m97.51,10.96c-3.3.01-5.48,2.53-5.48,7s2.21,6.99,5.45,7c2.25.16,4.27-1.4,4.66-3.63l4.45.03c-.48,3.93-3.78,7.5-9.17,7.5-5.67,0-9.87-4-9.87-10.9s4.28-10.9,9.87-10.9c4.89,0,8.58,2.8,9.17,7.68h-4.45c-.31-2.28-2.33-3.93-4.63-3.78Z"/>
                <path id="_패스_4947" data-name=" 패스 4947" class="cls-2" d="m109.67,7.36h4.39v17.58h9.14v3.63h-13.54V7.36h.01Z"/>
                <path id="_패스_4948" data-name=" 패스 4948" class="cls-2" d="m131.12,19.22c1.14-.07,3.28-.18,3.96-.21v-1.29c0-1.33-.92-2.09-2.55-2.11-1.48.01-2.4.67-2.64,1.76h-4.13c.26-2.75,2.67-4.92,6.88-4.92,3.47,0,6.75,1.55,6.74,5.39v10.72h-4.1v-2.2h-.12c-.93,1.67-2.75,2.64-4.66,2.49-3.05.01-5.29-1.6-5.3-4.75.01-3.54,2.86-4.7,5.92-4.89h0Zm.62,6.65c1.69.15,3.18-1.1,3.33-2.8v-1.35c-.66.03-2.52.13-3.25.19-1.51.13-2.46.85-2.46,2.08s.98,1.86,2.37,1.88h.01Z"/>
                <path id="_패스_4949" data-name=" 패스 4949" class="cls-2" d="m142.78,7.36h4.34v7.97h.12c.76-1.81,2.58-2.96,4.54-2.87,3.52,0,6.46,2.72,6.47,8.17,0,5.32-2.84,8.2-6.47,8.2-1.95.08-3.75-1.03-4.54-2.81h-.18v2.55h-4.28V7.36Zm7.62,18.02c2.21-.01,3.41-1.96,3.4-4.78,0-2.77-1.16-4.69-3.4-4.69s-3.38,1.83-3.37,4.69,1.23,4.76,3.37,4.78h0Z"/>
              </g>
            </g>
          </g>
        </g>
        <g>
          <g>
            <path class="cls-1" d="m50.46,41.62c.5.16,1.07.24,1.71.24s1.22-.08,1.71-.24c.5-.16.88-.4,1.16-.7s.41-.65.41-1.06-.14-.77-.41-1.07c-.28-.31-.66-.54-1.16-.71s-1.07-.25-1.71-.25-1.22.09-1.71.25c-.49.17-.88.4-1.15.71-.27.31-.41.66-.41,1.07s.14.76.41,1.06c.27.3.66.53,1.15.7Zm-.28-2.42c.19-.19.45-.33.79-.43s.74-.15,1.19-.15.85.05,1.2.15c.34.1.61.24.8.43s.28.41.28.66-.09.47-.28.65-.45.33-.8.42c-.34.1-.74.15-1.2.15s-.85-.05-1.19-.15c-.34-.1-.61-.24-.79-.42-.19-.18-.28-.4-.28-.65s.09-.48.28-.66Z"/>
            <polygon class="cls-1" points="56.4 42.68 47.98 42.68 47.98 43.48 50.08 43.48 50.08 46.68 51.09 46.68 51.09 43.48 53.29 43.48 53.29 46.68 54.27 46.68 54.27 43.48 56.4 43.48 56.4 42.68"/>
          </g>
          <g>
            <polygon class="cls-1" points="64.57 41.38 59.15 41.38 59.15 40.38 64.25 40.38 64.25 39.62 59.15 39.62 59.15 38.68 64.47 38.68 64.47 37.89 58.18 37.89 58.18 41.38 58.18 41.59 58.18 42.16 64.57 42.16 64.57 41.38"/>
            <polygon class="cls-1" points="65.5 43.01 57.08 43.01 57.08 43.82 60.8 43.82 60.8 46.68 61.76 46.68 61.76 43.82 65.5 43.82 65.5 43.01"/>
          </g>
          <path class="cls-1" d="m66.23,43.91c.71,0,1.38,0,2.02-.02.64,0,1.31-.04,2.01-.08s1.36-.11,1.98-.2l.08.71c-.64.12-1.31.21-2,.27s-1.34.1-1.94.11-1.28.02-2.02.02l-.12-.81h-.01Zm2.95-5.77c.48,0,.91.09,1.29.28s.68.44.89.78c.21.33.32.71.33,1.14,0,.43-.11.81-.33,1.14-.21.33-.51.59-.89.78-.38.18-.81.28-1.29.28s-.91-.09-1.29-.28-.68-.45-.9-.78c-.22-.33-.32-.71-.32-1.13s.1-.8.32-1.13.51-.59.9-.78.81-.28,1.29-.28v-.02Zm0,.85c-.3,0-.56.06-.8.17s-.42.27-.55.48c-.13.21-.2.44-.19.7,0,.27.06.5.19.71.13.2.32.36.55.47s.5.17.8.17.56-.06.8-.17c.24-.11.42-.27.55-.47.13-.21.2-.44.2-.71s-.07-.5-.2-.7-.32-.36-.55-.48c-.24-.11-.5-.17-.8-.17Zm4.61-1.5v9.22h-.97v-9.22h.97Z"/>
          <path class="cls-1" d="m81.48,44.77v-1.63h1.39v-.8h-5.61v-1.33h5.4v-2.87h-6.38v.79h5.42v1.28h-5.4v2.93h1.27v1.63h-2.3v.81h8.42v-.81s-2.21,0-2.21,0Zm-2.96-1.63h2v1.63h-2v-1.63Z"/>
          <g>
            <path class="cls-1" d="m88.03,42.84c-.29-.39-.51-.83-.65-1.33s-.21-1.03-.21-1.6v-.59h1.6v-.79h-4.27v.79h1.72v.59c0,.62-.07,1.21-.22,1.74-.14.54-.36,1.01-.66,1.43-.29.42-.66.75-1.1,1l.61.74c.47-.28.87-.66,1.18-1.15.3-.47.53-1.01.68-1.61.15.5.36.97.64,1.37.32.46.72.82,1.2,1.08l.57-.75c-.44-.22-.8-.53-1.09-.92Z"/>
            <polygon class="cls-1" points="91.38 37.48 91.38 41.14 90.28 41.14 90.28 37.66 89.35 37.66 89.35 46.23 90.28 46.23 90.28 41.96 91.38 41.96 91.38 46.68 92.31 46.68 92.31 37.48 91.38 37.48"/>
          </g>
          <g>
            <polygon class="cls-1" points="95.83 43.46 94.86 43.46 94.86 45.7 94.86 46.08 94.86 46.5 101.08 46.5 101.08 45.7 95.83 45.7 95.83 43.46"/>
            <path class="cls-1" d="m98.9,42.24l-.11-.79c-.4.08-.79.14-1.19.19-.39.04-.82.07-1.28.09-.4,0-.91.02-1.49.02v-2.69h3.14v-.8h-4.11v4.29h.73c1.01,0,1.83-.02,2.45-.06.62-.04,1.24-.12,1.85-.24h.01Z"/>
            <polygon class="cls-1" points="100.69 40.15 100.69 37.48 99.71 37.48 99.71 44.14 100.69 44.14 100.69 40.96 102.03 40.96 102.03 40.15 100.69 40.15"/>
          </g>
          <path class="cls-1" d="m107.75,37.95c.47,0,.89.09,1.26.27s.66.44.87.77.31.71.31,1.13-.11.79-.32,1.12c-.21.33-.5.58-.87.77-.37.18-.79.28-1.25.28s-.88-.09-1.26-.28c-.37-.18-.67-.44-.88-.77s-.32-.7-.32-1.12.11-.8.32-1.13.5-.59.88-.77c.37-.18.79-.27,1.26-.27Zm0,.83c-.29,0-.55.05-.78.17s-.4.27-.53.48-.19.44-.19.71.06.49.19.7c.13.2.3.36.53.47.23.11.49.17.78.17s.54-.06.77-.17c.23-.11.4-.27.53-.47s.19-.43.19-.7-.06-.5-.19-.71c-.13-.21-.3-.37-.53-.48s-.48-.17-.77-.17Zm5,4.42v3.37h-6.05v-3.37h6.05Zm-5.09.78v1.8h4.13v-1.8h-4.13Zm5.09-6.49v5.24h-.98v-5.24h.98Z"/>
          <g>
            <path class="cls-1" d="m116.9,40.55v-.03c.2.45.48.85.84,1.19.38.35.82.61,1.33.79l.52-.77c-.45-.15-.84-.36-1.18-.65-.34-.28-.59-.61-.77-.98s-.27-.75-.27-1.16v-1h-.97v.91c0,.46-.09.89-.27,1.3s-.44.77-.78,1.08-.75.56-1.22.72l.53.77c.52-.19.98-.48,1.36-.86s.68-.83.88-1.35v.04Z"/>
            <path class="cls-1" d="m120.1,43.46c-.46-.13-1-.2-1.63-.2s-1.18.07-1.65.2c-.46.13-.82.33-1.07.59s-.37.56-.37.92.12.67.37.93c.25.26.6.45,1.07.59.46.13,1.01.2,1.65.2s1.17-.07,1.63-.2.81-.33,1.06-.59.37-.57.37-.93-.12-.66-.37-.92-.6-.45-1.06-.59Zm.22,2.01c-.17.14-.4.25-.72.32-.31.07-.69.11-1.14.11s-.82-.04-1.14-.11-.56-.18-.72-.32-.25-.31-.25-.51.08-.36.25-.5.41-.25.73-.32c.32-.08.7-.11,1.14-.11s.82.04,1.13.11.55.18.72.32.25.3.25.5-.08.37-.25.51Z"/>
            <polygon class="cls-1" points="121.44 39.8 121.44 37.48 120.46 37.48 120.46 43.04 121.44 43.04 121.44 40.61 122.77 40.61 122.77 39.8 121.44 39.8"/>
          </g>
          <g>
            <path class="cls-1" d="m127.06,42.42c.25-.14.45-.32.63-.53h2.31v2.38h.97v-6.78h-.97v1.39h-2.32c-.18-.21-.37-.39-.62-.52-.36-.2-.77-.3-1.21-.3s-.87.1-1.23.3c-.37.2-.66.48-.86.83s-.31.75-.31,1.2.1.84.31,1.2.5.63.86.83.78.3,1.23.3.85-.1,1.21-.3Zm2.94-1.33h-1.87c.07-.22.11-.45.11-.7s-.05-.49-.11-.71h1.87v1.41Zm-5.45.07c-.13-.22-.19-.48-.19-.76s.06-.54.19-.76c.13-.22.3-.4.53-.52.23-.12.48-.19.76-.19s.52.07.75.19c.22.12.4.3.52.52.13.22.19.48.19.76s-.06.54-.19.76c-.13.22-.3.4-.52.52s-.47.18-.75.18-.54-.06-.76-.18-.4-.29-.53-.52Z"/>
            <polygon class="cls-1" points="125.97 43.57 125 43.57 125 45.7 125 46.06 125 46.5 131.21 46.5 131.21 45.7 125.97 45.7 125.97 43.57"/>
            <path class="cls-1" d="m140.78,42h-1.34c.06-.29.12-.59.15-.86.05-.42.08-.78.1-1.11,0-.32.02-.7.02-1.12v-.86h-6.3v.79h5.33v.05c0,.41,0,.78-.02,1.09,0,.32-.04.68-.1,1.08-.04.29-.11.61-.18.93h-6.06v.79h3.68v3.9h.98v-3.9h3.73v-.79h.01Z"/>
          </g>
          <g>
            <polygon class="cls-1" points="146.57 44.11 147.5 44.11 147.5 37.65 146.57 37.65 146.57 39.74 145.22 39.74 145.22 40.55 146.57 40.55 146.57 44.11"/>
            <rect class="cls-1" x="148.4" y="37.48" width=".92" height="6.9"/>
            <path class="cls-1" d="m144.4,42.05c.3.35.66.63,1.09.83l.54-.76c-.38-.16-.7-.39-.97-.67s-.47-.59-.6-.94-.2-.7-.2-1.07v-1.31h-.94v1.31c0,.37-.08.75-.22,1.13s-.36.72-.64,1.04-.62.57-1.01.75l.55.75c.44-.21.81-.51,1.12-.89.29-.36.51-.76.67-1.2.15.38.34.73.6,1.03h.01Z"/>
            <polygon class="cls-1" points="144.2 45.7 144.2 43.54 143.22 43.54 143.22 45.7 143.22 46.16 143.22 46.5 149.59 46.5 149.59 45.7 144.2 45.7"/>
          </g>
          <g>
            <polygon class="cls-1" points="157.28 37.48 157.28 40.89 155.45 40.89 155.45 41.68 157.28 41.68 157.28 46.7 158.25 46.7 158.25 37.48 157.28 37.48"/>
            <path class="cls-1" d="m153.99,43.67c-.54.03-1.22.05-2.01.05v-2.06h2.93v-.78h-2.93v-1.79h3.32v-.8h-4.3v6.23h.71c.9,0,1.67-.02,2.3-.06s1.26-.11,1.91-.21l-.11-.79c-.61.11-1.22.18-1.82.21h0Z"/>
          </g>
        </g>
      </g>
      <g id="symbol">
        <path id="_패스_3777" data-name=" 패스 3777" class="cls-3" d="m35.52,23.84c-.76,0-1.52.18-2.28.14-2.35-.13-3.75-1.49-3.39-3.81.09-.5.14-1.01.16-1.51,0-2.05-.77-4.02-2.14-5.54-.64-.67-.86-1.64-.59-2.52.46-1.23,1.64-1.08,2.71-1.08,2.63,0,4.76-2.11,4.77-4.74.02-2.63-2.11-4.78-4.73-4.78s-4.76,2.11-4.77,4.74c0,.54.09,1.07.27,1.58.27.65.36,1.36.24,2.06-.21.71-.7,1.31-1.35,1.65-.82.37-1.72.5-2.61.38-2.17,0-4.24.89-5.73,2.46-.76.81-1.38,1.73-1.85,2.74-.47.99-.92,2.24-2.17,2.41-1.4.19-2.2-.96-3.16-1.73-2.37-1.89-5.81-1.5-7.7.87s-1.5,5.81.87,7.7c2.04,1.62,4.93,1.59,6.93-.08.48-.4.88-.88,1.2-1.42.4-.85,1.02-1.58,1.8-2.11,1.12-.64,2.09.18,2.63,1.17.73,1.44,1.86,2.64,3.25,3.45.29.16.58.3.88.42.28.15.59.25.91.31,1.65.45,3.4.37,5.01-.23.79-.46,1.6-.87,2.44-1.22,2.04-.48,3.76-.08,4.38,1.87.24.76.26,1.59.55,2.34.29.74.81,1.36,1.49,1.78,1.4.83,3.17.72,4.46-.27,1.7-1.36,1.98-3.84.61-5.54-.71-.88-1.76-1.42-2.89-1.47h-.19"/>
        <path id="_패스_3778" data-name=" 패스 3778" class="cls-4" d="m22.74,33.25c.26,2.29-1.37,4.35-3.66,4.62-2.29.26-4.35-1.37-4.62-3.66-.26-2.28,1.37-4.35,3.65-4.62,2.29-.26,4.36,1.37,4.62,3.66"/>
        <path id="_패스_3779" data-name=" 패스 3779" class="cls-4" d="m15.25,4.9c.16,1.39-.84,2.65-2.23,2.82-1.39.16-2.65-.84-2.82-2.23-.16-1.39.84-2.65,2.23-2.82,1.39-.16,2.66.84,2.82,2.23"/>
      </g>
    </g>
  </g>
</svg>