<?xml version="1.0" encoding="UTF-8"?>
<svg id="_레이어_2" data-name="레이어 2" xmlns="http://www.w3.org/2000/svg" viewBox="0 0 153.31 37.9">
  <defs>
    <style>
      .cls-1 {
        fill: #fff;
        stroke-width: 0px;
      }
    </style>
  </defs>
  <g id="_레이어_2-2" data-name=" 레이어 2">
    <g>
      <g id="_레이어_1-2" data-name=" 레이어 1-2">
        <g id="logo">
          <g id="symbol">
            <path id="_패스_3777" data-name=" 패스 3777" class="cls-1" d="m35.52,23.84c-.76,0-1.52.18-2.28.14-2.35-.13-3.75-1.49-3.39-3.81.09-.5.14-1.01.16-1.51,0-2.05-.77-4.02-2.14-5.54-.64-.67-.86-1.64-.59-2.52.46-1.23,1.64-1.08,2.71-1.08,2.63,0,4.76-2.11,4.77-4.74.02-2.63-2.11-4.78-4.73-4.78s-4.76,2.11-4.77,4.74c0,.54.09,1.07.27,1.58.27.65.36,1.36.24,2.06-.21.71-.7,1.31-1.35,1.65-.82.37-1.72.5-2.61.38-2.17,0-4.24.89-5.73,2.46-.76.81-1.38,1.73-1.85,2.74-.47.99-.92,2.24-2.17,2.41-1.4.19-2.2-.96-3.16-1.73-2.37-1.89-5.81-1.5-7.7.87s-1.5,5.81.87,7.7c2.04,1.62,4.93,1.59,6.93-.08.48-.4.88-.88,1.2-1.42.4-.85,1.02-1.58,1.8-2.11,1.12-.64,2.09.18,2.63,1.17.73,1.44,1.86,2.64,3.25,3.45.29.16.58.3.88.42.28.15.59.25.91.31,1.65.45,3.4.37,5.01-.23.79-.46,1.6-.87,2.44-1.22,2.04-.48,3.76-.08,4.38,1.87.24.76.26,1.59.55,2.34.29.74.81,1.36,1.49,1.78,1.4.83,3.17.72,4.46-.27,1.7-1.36,1.98-3.84.61-5.54-.71-.88-1.76-1.42-2.89-1.47h-.19"/>
            <path id="_패스_3778" data-name=" 패스 3778" class="cls-1" d="m22.74,33.25c.26,2.29-1.37,4.35-3.66,4.62-2.29.26-4.35-1.37-4.62-3.66-.26-2.28,1.37-4.35,3.65-4.62,2.29-.26,4.36,1.37,4.62,3.66"/>
            <path id="_패스_3779" data-name=" 패스 3779" class="cls-1" d="m15.25,4.9c.16,1.39-.84,2.65-2.23,2.82-1.39.16-2.65-.84-2.82-2.23-.16-1.39.84-2.65,2.23-2.82,1.39-.16,2.66.84,2.82,2.23"/>
          </g>
          <g>
            <path class="cls-1" d="m65.36,7.36v13.77c0,4.64-3.53,7.75-8.79,7.73-5.27.01-8.76-3.09-8.76-7.73V7.36h4.39v13.42c0,2.45,1.74,4.2,4.37,4.22,2.65-.01,4.38-1.77,4.37-4.22V7.36h4.42Z"/>
            <path class="cls-1" d="m68.79,25.37l7.62-7c1.98-1.89,3.05-3.06,3.05-4.75,0-1.89-1.42-3.06-3.37-3.05-1.99-.01-3.3,1.25-3.28,3.28h-4.19c-.01-4.15,3.06-6.8,7.53-6.8s7.56,2.59,7.56,6.27c0,2.42-1.17,4.39-5.54,8.35l-3.22,3.13v.12h9.05v3.63h-15.18l-.03-3.19h0Z"/>
            <path class="cls-1" d="m88.14,7.36h4.39v17.58h9.14v3.63h-13.54V7.36h.01Z"/>
            <path class="cls-1" d="m109.59,19.22c1.14-.07,3.28-.18,3.96-.21v-1.29c0-1.33-.92-2.09-2.55-2.11-1.48.01-2.4.67-2.64,1.76h-4.13c.26-2.75,2.67-4.92,6.88-4.92,3.47,0,6.75,1.55,6.74,5.39v10.72h-4.1v-2.2h-.12c-.78,1.46-2.3,2.5-4.66,2.49-3.05.01-5.29-1.6-5.3-4.75.01-3.54,2.86-4.7,5.92-4.89h0Zm.62,6.65c1.98-.01,3.35-1.3,3.34-2.99v-1.16c-.66.03-2.52.13-3.25.19-1.51.13-2.46.85-2.46,2.08s.98,1.86,2.37,1.88h0Z"/>
            <path class="cls-1" d="m121.25,7.36h4.34v7.97h.12c.6-1.29,1.86-2.87,4.54-2.87,3.52,0,6.46,2.72,6.47,8.17,0,5.32-2.84,8.2-6.47,8.2-2.59,0-3.91-1.49-4.54-2.81h-.18v2.55h-4.28V7.36Zm7.62,18.02c2.21-.01,3.41-1.96,3.4-4.78,0-2.77-1.16-4.69-3.4-4.69s-3.38,1.83-3.37,4.69c0,2.87,1.23,4.76,3.37,4.78Z"/>
          </g>
        </g>
      </g>
      <path class="cls-1" d="m148.85,17.23c-.1-.58-.38-1.03-.85-1.37-.47-.33-1.06-.5-1.79-.5-.47,0-.9.07-1.28.21-.38.14-.68.33-.89.58-.22.25-.32.53-.31.84,0,.38.15.7.48.97.33.27.85.49,1.58.65l2.9.59c1.56.32,2.71.84,3.47,1.55.76.71,1.14,1.65,1.15,2.8,0,1.04-.31,1.96-.89,2.76-.59.8-1.42,1.42-2.5,1.86s-2.32.66-3.72.66-2.67-.2-3.71-.61c-1.05-.41-1.87-.99-2.46-1.75-.6-.76-.95-1.66-1.07-2.71h4.39c.1.63.4,1.1.89,1.42.49.32,1.15.48,1.96.48.53,0,.99-.07,1.39-.2s.71-.33.93-.58c.22-.25.33-.54.33-.88,0-.42-.18-.76-.53-1.03-.35-.26-.9-.48-1.66-.64l-2.66-.52c-1.54-.3-2.69-.84-3.47-1.62-.78-.78-1.17-1.76-1.16-2.95,0-1.02.27-1.91.83-2.66.56-.76,1.35-1.34,2.36-1.74,1.02-.4,2.21-.61,3.58-.61s2.51.2,3.51.6c1,.4,1.78.98,2.34,1.73.56.75.88,1.64.96,2.66h-4.1Z"/>
    </g>
  </g>
</svg>